<?xml version="1.0" encoding="UTF-8"?>
<svg id="Layer_2" data-name="Layer 2" xmlns="http://www.w3.org/2000/svg" xmlns:xlink="http://www.w3.org/1999/xlink" viewBox="0 0 1357.7 1167.13">
  <defs>
    <style>
      .cls-1 {
        fill: url(#linear-gradient);
      }

      .cls-1, .cls-2, .cls-3, .cls-4, .cls-5, .cls-6, .cls-7, .cls-8, .cls-9, .cls-10, .cls-11, .cls-12, .cls-13, .cls-14, .cls-15, .cls-16, .cls-17, .cls-18, .cls-19, .cls-20, .cls-21, .cls-22, .cls-23, .cls-24, .cls-25, .cls-26, .cls-27, .cls-28, .cls-29, .cls-30, .cls-31, .cls-32, .cls-33, .cls-34, .cls-35, .cls-36, .cls-37, .cls-38, .cls-39, .cls-40, .cls-41, .cls-42, .cls-43, .cls-44, .cls-45, .cls-46, .cls-47, .cls-48, .cls-49, .cls-50, .cls-51, .cls-52, .cls-53 {
        stroke-width: 0px;
      }

      .cls-2 {
        fill: #c5a16d;
      }

      .cls-3 {
        fill: #863a07;
      }

      .cls-4 {
        fill: #b24109;
      }

      .cls-5 {
        fill: #b55c78;
      }

      .cls-6 {
        fill: #f6f9e4;
      }

      .cls-7 {
        fill: #452610;
      }

      .cls-8 {
        fill: #38440e;
      }

      .cls-9 {
        fill: #779112;
      }

      .cls-10 {
        fill: #ef8607;
      }

      .cls-11 {
        fill: #e47205;
      }

      .cls-12 {
        fill: #7f5f42;
      }

      .cls-13 {
        fill: #386b0f;
      }

      .cls-14 {
        fill: #89bd62;
      }

      .cls-15 {
        fill: #e6c686;
      }

      .cls-16 {
        fill: #4d7a1c;
      }

      .cls-17 {
        fill: url(#linear-gradient-5);
      }

      .cls-18 {
        fill: #f9ecc7;
      }

      .cls-19 {
        fill: #d88e2d;
      }

      .cls-20 {
        fill: #94af18;
      }

      .cls-21 {
        fill: #c3251f;
      }

      .cls-22 {
        fill: #393306;
      }

      .cls-23 {
        fill: #4d6010;
      }

      .cls-24 {
        fill: #e44036;
      }

      .cls-25 {
        fill: #891211;
      }

      .cls-26 {
        fill: url(#linear-gradient-2);
      }

      .cls-27 {
        fill: #d36006;
      }

      .cls-28 {
        fill: #b96404;
      }

      .cls-29 {
        fill: #f8613b;
      }

      .cls-30 {
        fill: #f8a20c;
      }

      .cls-31 {
        fill: #f7b81b;
      }

      .cls-32 {
        fill: #c5500a;
      }

      .cls-33 {
        fill: #5c1225;
      }

      .cls-34 {
        fill: url(#linear-gradient-3);
      }

      .cls-35 {
        fill: #fbca4e;
      }

      .cls-36 {
        fill: #cce675;
      }

      .cls-37 {
        fill: #613c25;
      }

      .cls-38 {
        fill: #98c434;
      }

      .cls-39 {
        fill: #f7f9b4;
      }

      .cls-40 {
        fill: #cf4440;
      }

      .cls-41 {
        fill: #669a26;
      }

      .cls-42 {
        fill: #355a0f;
      }

      .cls-43 {
        fill: #583b0d;
      }

      .cls-44 {
        fill: #efd8aa;
      }

      .cls-45 {
        fill: #2f0d0c;
      }

      .cls-46 {
        fill: #f3f288;
      }

      .cls-47 {
        fill: #292d09;
      }

      .cls-48 {
        fill: #74491b;
      }

      .cls-49 {
        fill: url(#linear-gradient-4);
      }

      .cls-50 {
        fill: #f38873;
      }

      .cls-51 {
        fill: #61730e;
      }

      .cls-52 {
        fill: #5b8719;
      }

      .cls-53 {
        fill: #e1a25b;
      }
    </style>
    <linearGradient id="linear-gradient" x1="618.5" y1="474.94" x2="834.97" y2="505.51" gradientUnits="userSpaceOnUse">
      <stop offset="0" stop-color="#f89a08"/>
      <stop offset="1" stop-color="#cb5606"/>
    </linearGradient>
    <linearGradient id="linear-gradient-2" x1="428.62" y1="937.58" x2="481.06" y2="1067.83" gradientUnits="userSpaceOnUse">
      <stop offset="0" stop-color="#4d791c"/>
      <stop offset="1" stop-color="#22440d"/>
    </linearGradient>
    <linearGradient id="linear-gradient-3" x1="413.77" y1="643.66" x2="537.89" y2="785.4" gradientUnits="userSpaceOnUse">
      <stop offset="0" stop-color="#eb4832"/>
      <stop offset="1" stop-color="#a0131d"/>
    </linearGradient>
    <linearGradient id="linear-gradient-4" x1="132.93" y1="616.32" x2="230.36" y2="731.77" gradientUnits="userSpaceOnUse">
      <stop offset="0" stop-color="#60152a"/>
      <stop offset="1" stop-color="#3e0e15"/>
    </linearGradient>
    <linearGradient id="linear-gradient-5" x1="1248.09" y1="342.84" x2="1171.55" y2="391.41" gradientUnits="userSpaceOnUse">
      <stop offset="0" stop-color="#213b15"/>
      <stop offset="1" stop-color="#3e6523"/>
    </linearGradient>
  </defs>
  <g id="Layer_1-2" data-name="Layer 1">
    <g>
      <g>
        <g>
          <path class="cls-41" d="M630.49,250.33c-1.77.09-3.58-.15-5.33,0-8.76.75-19.15,4.56-20.44,3.55-3.97-9.59,4.08-6.65,4.44-7.11,15.46,4.54,30.14-2.36,40.88-14.22,8.27-9.13,9.47-14.68,12.44-26.66h1.78c-2.93,13.69-6.41,26.68-10.66,39.99l-23.11,4.44Z"/>
          <path class="cls-10" d="M758.45,241.44c-25.48-2.72-28.39-5.94-33.77-28.44,10.08,1.89,24.98,20.18,33.77,28.44Z"/>
          <path class="cls-39" d="M650.04,232.55c-10.74,11.86-25.42,18.76-40.88,14.22,12.1-15.03,21.94-11.75,40.88-14.22Z"/>
        </g>
        <g>
          <path class="cls-42" d="M797.56,21.05c25.26,29.16,23.8,52.69,4.44,56.88-28.03,6.06-22.91-28.04-50.65,2.67-28.83,31.9-36.21,92.5-26.66,132.41,5.38,22.5,8.29,25.72,33.77,28.44,8.09,7.6,13.65,6.55,14.22,7.11,4.14,4.1,5.3,19.03,4.44,19.55-2.52,1.54-45.47-9.98-57.76-12.44-11.25-2.26-22.6-4.47-33.77-7.11.45-.02-2.35-1.37,8.89-1.78,3.69-.13,16.6,5,17.77,2.67-8.29-20.11-8.9-43.77-10.66-65.76,6.3,27.24,3.2-21.64,7.11-40.88,7.31-35.99,27.39-68.51,55.99-91.53.48-.39,10.92-3.44,11.55-4.44,3.66-5.76-15.35.54,7.11-21.33-12.05-28.09-.77-4.83,14.22-4.44Z"/>
          <path class="cls-38" d="M683.81,191.67c-2.65,17.41-10.22,49.27-1.78,58.65-16.65.98-34.85,1.2-51.54,0l23.11-4.44c4.26-13.31,7.74-26.3,10.66-39.99,2.99-13.97,3.23-33.54,7.11-48.88,22.26-88.09,60.18-106.78,83.54-141.3,10.14-8.9,24.56.19,17.77,13.33-3.6,6.96-57.54,22.6-81.76,120.86-.07.27,2.72,1.34,1.78,5.33-.35,1.48-3.22.3-3.55,1.78-2.48,10.84-3.64,23.54-5.33,34.66Z"/>
          <path class="cls-52" d="M797.56,21.05c-14.99-.39-26.27-23.65-14.22,4.44-22.46,21.87-3.45,15.57-7.11,21.33-.63,1-11.07,4.06-11.55,4.44-28.6,23.02-48.67,55.54-55.99,91.53-3.91,19.24-.81,68.12-7.11,40.88,1.77,22,2.37,45.65,10.66,65.76-1.17,2.33-14.08-2.8-17.77-2.67,1.89-25.9-.53-72.53-10.66-55.1,1.7-11.12,2.86-23.82,5.33-34.66.34-1.47,3.21-.3,3.55-1.78.94-3.99-1.84-5.06-1.78-5.33,24.21-98.26,78.16-113.89,81.76-120.86,6.78-13.14-7.64-22.23-17.77-13.33,2.87-4.25,6.72-36.16,42.66,5.33Z"/>
          <path class="cls-41" d="M694.47,246.77c-11.23.4-8.43,1.75-8.89,1.78-1.69.09-1.85,1.68-3.55,1.78-8.45-9.38-.88-41.24,1.78-58.65,10.14-17.43,12.56,29.2,10.66,55.1Z"/>
        </g>
        <g>
          <g>
            <path class="cls-10" d="M589.61,237.89c22.67,35.33-3.08,20.99-28.44,52.43-47.31,58.67-33.99,173.8-16,242.61-8.21-3.46-26.72-8.43-35.55-8.89-20.57-1.07-25.82,5.93-33.77,8.89-4.41.85-6.34-1.46-8.89-4.44-4.68-5.5-52.59-75.92-58.65-86.2,4.15-7.08-18.92-30.48-5.33-24.88,1.16,2.58,6.36,7.5,7.11,8.89,6.16,11.47,13.41,24.38,21.33,34.66,45.74,59.41,19.81,17.56,40.88-63.98,11.07-42.82,47.3-97.33,44.43-114.64,20.84-23.13,4.68-40.59,45.32-40.88,1.61-.01,12.59,9.53,15.11-3.55,1.6.32,4.81,2.32,6.22,3.55l6.22-3.55Z"/>
            <path class="cls-30" d="M577.17,237.89c-2.52,13.09-13.5,3.54-15.11,3.55-40.64.29-24.48,17.75-45.32,40.88-.56-3.38-7.91-12.68-10.66-16-49.92-60-109.72,19.07-113.75,78.2h-7.11c5.27-30.97,7.99-38.69,23.11-65.76,3.98-7.12,5.03-10.15,5.33-10.66.25-.43,1.51,2.26,7.11-7.11,10.94-9.42,20.69-19.91,33.77-26.66,5.55-2.86,5.04-3.43,5.33-3.55,16.97-6.88,34.46-7.53,52.43-7.11,1.34.03.04-3.73,2.67-3.55.18.01-.59,3.41.89,3.55,31.34,3.06,46.69,11.32,61.32,14.22Z"/>
            <g>
              <path class="cls-35" d="M506.07,266.32c-15.56,61.19-76.85,98.59-95.98,159.96-.75-1.39-5.95-6.3-7.11-8.89-9.85-21.86-12.29-49.02-10.66-72.87,4.03-59.13,63.83-138.2,113.75-78.2Z"/>
              <path class="cls-31" d="M516.74,282.32c2.86,17.31-33.37,71.82-44.43,114.64-21.07,81.54,4.87,123.4-40.88,63.98-7.91-10.28-15.17-23.19-21.33-34.66,19.12-61.37,80.41-98.77,95.98-159.96,2.76,3.31,10.11,12.62,10.66,16Z"/>
              <path class="cls-31" d="M392.32,344.53c-1.62,23.85.82,51.01,10.66,72.87-13.59-5.6,9.48,17.8,5.33,24.88-13.2-22.4-18.27-37.38-28.44-56.88,2.28-3.13,1.44-8.56,1.78-12.44.83-9.57,1.94-18.96,3.55-28.44h7.11Z"/>
            </g>
          </g>
          <g>
            <path class="cls-1" d="M719.35,255.66c-.01,1.2-.44,3.22.89,3.55,20.25,5.13,41.65,8.51,62.21,12.44,2.4,3.88,5.17,7.12,8,10.66,2.84,3.56,14.73,25.38,17.77,31.99-.62.27-2.92-.88-5.33,2.67,43.36,85.73,39.87,235.21,33.77,331.47-36.74-1.86-132.33,49.35-168.85,69.32-4.85-35.98-13.34-70.47-24.88-104.86,18.48,12.28,98.9,58.38,68.43,28.44-13.93-13.69-131.52-88.17-153.74-99.53l11.55-40.88c61.7,63.51,36.59,29.47,36.44-2.67-.03-6.63,6-88.01,7.11-94.2,7.95-44.16,32.73-60.39,42.66-89.76,11.33-33.52,2.7-51.89-33.77-56.88-4.35-6.02,4.03-.66,3.55-7.11,1.76-.15,3.56.09,5.33,0,16.7,1.2,34.9.98,51.54,0,1.7-.1,1.86-1.69,3.55-1.78,11.17,2.64,22.51,4.85,33.77,7.11Z"/>
            <g>
              <path class="cls-31" d="M662.48,205.89c-2.97,11.98-4.17,17.53-12.44,26.66-18.94,2.47-28.78-.81-40.88,14.22-.37.46-8.41-2.48-4.44,7.11,1.29,1,11.68-2.81,20.44-3.55.47,6.45-7.91,1.09-3.55,7.11-65.17,17.47-82.12,90.53-78.2,150.19,1.33,20.17,7.99,70.61,31.99,71.09,4.4-77.25,13.88-120.44,79.98-164.4-9.93,29.36-34.71,45.59-42.66,89.76-1.11,6.19-7.14,87.57-7.11,94.2.16,32.14,25.27,66.18-36.44,2.67l-11.55,40.88c-8.74-4.47-11.74-8.59-12.44-8.89-17.99-68.81-31.32-183.94,16-242.61,25.36-31.44,51.1-17.1,28.44-52.43,16.91-16.61,49.56-28.8,72.87-31.99Z"/>
              <path class="cls-35" d="M621.6,257.44c36.47,4.98,45.1,23.36,33.77,56.88-66.1,43.97-75.58,87.16-79.98,164.4-24-.48-30.67-50.93-31.99-71.09-3.92-59.65,13.04-132.71,78.2-150.19Z"/>
            </g>
          </g>
          <g>
            <path class="cls-27" d="M966.4,243.22c20,28.11,28.7,62.33,33.77,95.98-44.22,2.3-78.52,98.47-44.43,124.41,3.63,2.77,6.37,8.94,16.88,7.11l16.88,26.66c-4.95,8.37-37.27,59.43-37.32,63.1-.11,8.12,12.11,10.49,17.77,13.33,6.68,3.35,14.13,6.78,21.33,8.89-33.45,32.94-54.95,79.47-58.65,126.19-3.54-4.14-7.07-8.36-10.66-12.44-8.43-9.57-16.42-18.12-26.66-25.77l-7.11-143.96c-3.64,1.47-14.93-21.68-16-24.88-9.62-28.82-8.5-98.92-30.21-105.75-4-16.65-11.04-35.69-17.77-51.54,17.97-.61,31.8,18.48,47.99,20.44,8.85,21.79,10.44,105.02,12.44,110.2.43,1.11,14.79,12.68,20.44,9.78,6.74-3.47-.05-61.68,4.44-96.87,5.54-43.4,35.51-104.24,33.77-151.07,11.07-15.59,47.53,65.54,47.99,97.75h3.55c.03-32.94-18.85-63.95-28.44-91.53Z"/>
            <path class="cls-11" d="M966.4,243.22c9.59,27.58,28.47,58.59,28.44,91.53h-3.55c-.46-32.21-36.92-113.35-47.99-97.75,1.74,46.83-28.23,107.68-33.77,151.07-4.49,35.19,2.3,93.4-4.44,96.87-5.65,2.9-20.01-8.66-20.44-9.78-2.01-5.18-3.59-88.41-12.44-110.2-16.18-1.96-30.02-21.05-47.99-20.44-4.42-10.4-9.35-20.07-14.22-30.21,33.63-7.76,72.21,30.9,92.42-27.55,7.6-21.98,7.33-59.45,17.77-78.2-17.65-11.3-20.99-2.61-24.88-2.67v-8.89c30.22,5.85,53.34,21.26,71.09,46.21Z"/>
            <path class="cls-30" d="M895.31,197.01v8.89c-18.27-.26-56.08-5.36-58.65,17.77-46.03-.83-48.52,53.04-24.88,53.32.08,15.21-13.03-.78-21.33,5.33-2.83-3.55-5.6-6.78-8-10.66-20.55-3.93-41.95-7.32-62.21-12.44-1.33-.34-.9-2.35-.89-3.55,12.3,2.47,55.24,13.98,57.76,12.44.85-.52-.3-15.45-4.44-19.55,23.16-45.27,74.5-60.86,122.64-51.54Z"/>
            <path class="cls-32" d="M921.97,696.44c-14.87-11.18-28.1-22.67-44.43-31.99-5.95-3.4-10.91-8.24-17.77-10.66-9.06-7.82-1.18-2.66,0-11.55,6.59-49.76-5.54-195.17-17.77-246.16,21.72,6.83,20.59,76.94,30.21,105.75,1.07,3.21,12.35,26.35,16,24.88l7.11,143.96c10.24,7.65,18.23,16.2,26.66,25.77Z"/>
            <path class="cls-4" d="M808.22,314.31c.44-.19,1.16.14,1.78,0,4.87,10.14,9.8,19.82,14.22,30.21,6.74,15.85,13.78,34.89,17.77,51.54,12.24,50.99,24.37,196.4,17.77,246.16-1.18,8.89-9.06,3.74,0,11.55-8.48-2.99-13.83-4.86-23.11-5.33,6.1-96.26,9.6-245.75-33.77-331.47,2.41-3.55,4.71-2.4,5.33-2.67Z"/>
            <path class="cls-10" d="M810,314.31c-.62.14-1.34-.19-1.78,0-3.04-6.61-14.94-28.44-17.77-31.99,8.3-6.11,21.4,9.87,21.33-5.33,8.73.1,19.7-11.27,32.88-10.66,15.43.71,32.31,26.74,39.99,4.44,8.25-23.97-25.52-46.69-47.99-47.1,2.57-23.13,40.38-18.03,58.65-17.77,3.89.05,7.23-8.64,24.88,2.67-10.44,18.75-10.17,56.22-17.77,78.2-20.21,58.45-58.79,19.79-92.42,27.55Z"/>
            <path class="cls-31" d="M836.66,223.67c22.47.41,56.24,23.13,47.99,47.1-7.68,22.3-24.56-3.74-39.99-4.44-13.19-.6-24.15,10.77-32.88,10.66-23.64-.28-21.15-54.15,24.88-53.32Z"/>
          </g>
        </g>
      </g>
      <g>
        <path class="cls-27" d="M410.1,492.05c8.92,12.5,17.78,27.15,24.88,40.88-6.47-3.4-26.54-23.82-35.55-30.21l-5.33-30.21c.69,1.06,5.79,5.25,16,19.55Z"/>
        <path class="cls-25" d="M346.11,835.07l16,42.66,1.78,2.67c-3.49,5.06-11.96,15.95-12.44,16.88,1.67-22.27-3.86-44.69-8-65.76l2.67,3.55Z"/>
        <path class="cls-7" d="M1160.13,977.26c-5.27,3.38-17.98,5.72-23.11,1.78,7.42-.42,15.81-.68,23.11-1.78Z"/>
      </g>
      <g>
        <g>
          <path class="cls-26" d="M381.66,1098.12c-13.09-.81-26.15-5.22-27.55-5.33-4.39-.35-.25,10.24-9.78,0,3.03-14.93,13.96-29.76,19.55-43.54.48-1.19-7.01,4.52,5.33-22.22,9.81-21.26,38.73-74.23,55.1-87.09.86-.68,2.54,1.87,2.67,1.78,4.4-3.17,2.06-7.24,2.67-8,7.53-9.37,2.74,21.18,12.44,19.55,3.44-10.57-5.19-23.68,0-33.77,1.31-2.54,21.14-14.24,21.33-21.33.4-14.83-10.09,5.04-17.77,6.22,3.77-4.54,12-11.43,14.22-15.11,1.1-1.83-2.26-3.12-1.78-4.44.2-.56,10.61-.66,0-5.33,12.31-3.56,24.94-14.11,31.99-24.88,3.08.12,8.09-4.61,10.66-7.11,8-.75-2.58,7.91,4.44,8.89,3.12.43,8-8.69,8.89-8.89,2.17-.48,8.76,8.84,12.44,7.11,1.43-.67,1.14-14.56,11.55-9.78-8.03,72.63-4.89,145.89,0,218.61-1.34,5.13-59.91,25.71-68.43,27.55-37.32,8.08-61.74,1.83-87.98,7.11Z"/>
          <path class="cls-16" d="M554.06,799.53c-24.77,41.41-19.84,211.71-12.44,263.05.16,1.14-.18,2.42,0,3.55-58.06,27.92-95.81,35.94-159.96,31.99,26.23-5.28,50.66.97,87.98-7.11,8.52-1.84,67.08-22.42,68.43-27.55-4.89-72.72-8.03-145.98,0-218.61-10.41-4.79-10.12,9.1-11.55,9.78-3.68,1.73-10.27-7.59-12.44-7.11-.89.2-5.77,9.32-8.89,8.89-7.02-.98,3.56-9.63-4.44-8.89,5.08-4.93,14.21-14.55,11.55-16-10.29,1.36-20.9,1.81-31.1,3.55-1.54.26-10.81-.84-13.33,0-1.36.45-21.64,12.23-24.88,14.22-15.94,9.78-31.08,23.39-43.54,37.32-14.87,16.61-47.42,64.9-51.54,85.31-4.96-.81-9.96,36.4-8.89,38.21h3.55c-.37-2.1.38-4.73,1.78-6.22,9.02-9.64,26.29-19.43,37.32-27.55l-.89-2.67c-3.85,3.76-11.18,5.05-15.11,7.11,6.85-17.6,42.29-18.75,40.88-35.55,13.23-6.01,11.73-8.6,12.44-8.89.36-.14,1.36-.06,1.78,0,2.88.43.8,3.55,3.55,3.55-16.37,12.86-45.29,65.83-55.1,87.09,9.56-23.53-11.92.83-34.66,14.22-16.06-28.12,2.31-95.37,15.11-123.53,10.33-22.72,31.5-39.38,39.1-63.1,17.61-15.42,26.14-18.96,44.43-30.21,2.91-1.79,9.36-2.59,8.89-4.44-.33-1.32-12.44-.99-8-8,33.84.14,68.95-8.59,99.53-12.44l-2.67-3.55c7.12.71,16.5,1.52,23.11,3.55Z"/>
          <path class="cls-13" d="M369.22,1027.03c-12.34,26.74-4.85,21.03-5.33,22.22-5.59,13.79-16.52,28.61-19.55,43.54-13.08-14.06-22.61-48.48-24.88-67.54-1.32-11.06-2.74-22.62-1.78-33.77.99-11.5,10.09-31.93,8.89-46.21,3.39-7.18,7.33-14.12,10.66-21.33,4.17-9,9.6-17.78,14.22-26.66.48-.93,8.96-11.82,12.44-16.88l-1.78-2.67c6.13,1.56,11.21-9.57,26.66-23.11-7.6,23.72-28.78,40.38-39.1,63.1-12.8,28.15-31.17,95.4-15.11,123.53,22.74-13.39,44.22-37.75,34.66-14.22Z"/>
          <path class="cls-52" d="M458.08,884.84c-.48,1.32,2.88,2.61,1.78,4.44-2.22,3.68-10.45,10.57-14.22,15.11-14.2,17.08-25.45,24.29-24.88,31.99-.42-.06-1.42-.14-1.78,0-1.81-.99-.57-6.88-2.67-7.11-4.25-.46-59.47,34.32-.89-40.88,14.3-.51,28.47-1.78,42.66-3.55Z"/>
          <path class="cls-16" d="M490.08,854.62c-7.06,10.78-19.68,21.32-31.99,24.88-12.55,3.63-46.5,5.07-47.99,2.67,10.8-7.8,19.29-18.09,30.21-25.77,9.23,9.41,16.28-3.82,23.99-8.89,9.78,8.63,36.87-9.84,25.77,7.11Z"/>
          <path class="cls-52" d="M500.74,847.51c-2.57,2.5-7.59,7.23-10.66,7.11,11.1-16.94-15.99,1.52-25.77-7.11-7.72,5.06-14.77,18.3-23.99,8.89,22-15.46,28.15-13.16,40.88-21.33,10.2-1.75,20.82-2.19,31.1-3.55,2.65,1.45-6.47,11.06-11.55,16Z"/>
          <path class="cls-14" d="M481.19,835.07c-12.73,8.17-18.88,5.87-40.88,21.33-10.93,7.68-19.41,17.97-30.21,25.77,1.49,2.4,35.44.96,47.99-2.67,10.61,4.67.2,4.77,0,5.33-14.18,1.78-28.36,3.04-42.66,3.55-8.77.31-16.1,2.22-16-1.78,12.47-13.93,27.6-27.55,43.54-37.32,3.24-1.99,23.52-13.76,24.88-14.22,2.52-.84,11.79.26,13.33,0Z"/>
          <path class="cls-41" d="M424.31,939.94c-2.75,0-.68-3.13-3.55-3.55-.56-7.7,10.69-14.91,24.88-31.99,7.68-1.18,18.18-21.05,17.77-6.22-.19,7.09-20.02,18.78-21.33,21.33-5.19,10.09,3.44,23.2,0,33.77-9.7,1.63-4.91-28.92-12.44-19.55-.61.76,1.73,4.83-2.67,8-.13.09-1.8-2.46-2.67-1.78Z"/>
          <path class="cls-14" d="M415.43,888.39c-58.58,75.2-3.36,40.42.89,40.88,2.1.23.85,6.11,2.67,7.11-.71.28.79,2.88-12.44,8.89-20.88,9.49-42.53,17.46-59.54,33.77-2.71-3.05.51-5.21.89-7.11,4.12-20.42,36.68-68.7,51.54-85.31-.11,4,7.22,2.09,16,1.78Z"/>
          <path class="cls-13" d="M530.95,795.97l2.67,3.55c-30.59,3.86-65.69,12.59-99.53,12.44-4.44,7.01,7.66,6.68,8,8,.47,1.85-5.97,2.65-8.89,4.44-2.1-9.25-7.35-16.86.89-21.33,7.74-4.2,68.29-9.95,96.87-7.11Z"/>
          <path class="cls-52" d="M365.66,980.82c-4.7,2.47-28.43,18.63-21.33,23.11-1.4,1.49-2.15,4.12-1.78,6.22h-3.55c-1.07-1.82,3.92-39.02,8.89-38.21-.38,1.9-3.6,4.06-.89,7.11,17.01-16.31,38.66-24.28,59.54-33.77,1.41,16.8-34.02,17.94-40.88,35.55Z"/>
          <path class="cls-14" d="M344.33,1003.92c-7.11-4.48,16.63-20.64,21.33-23.11,3.92-2.06,11.26-3.35,15.11-7.11l.89,2.67c-11.03,8.12-28.3,17.91-37.32,27.55Z"/>
        </g>
        <g>
          <path class="cls-34" d="M642.93,612.9c11.54,34.39,20.04,68.89,24.88,104.86-3.51,1.92-7.4,3.49-10.66,5.33-1.01-46.85-7.45-104.63-59.54-120.86l36.44,133.3c-20.72,12.6-68.25,44.38-79.98,63.98-6.61-2.03-15.98-2.85-23.11-3.55-28.58-2.84-89.13,2.91-96.87,7.11-8.23,4.47-2.99,12.08-.89,21.33-18.29,11.26-26.83,14.79-44.43,30.21-15.45,13.53-20.53,24.66-26.66,23.11l-16-42.66c-.68-13.12-17.55-69.06-5.33-59.54l-7.11-9.78c-.2-45.5-26.78-86.41,19.55-159.96l3.55,7.11c-15.11,26.45-21.9,52.04.89,76.43,37.66,40.3,98.99,6.16,96.87-42.66,9.96,8.73,16.94,12.2,28.44,3.55,4.13,11.07,42.15-34.71,46.21-42.66,13.91-.3,52.24,8.87,34.66-8.89-14.01-14.15-44.32-18.95-63.1-19.55.7-.69,2.27-8.69,11.55-16,16.96-5.23,119.96,29,130.63,49.77Z"/>
          <path class="cls-21" d="M438.53,534.7h1.78c5.05,8.44,12.26,17.79,16,26.66-4.53,2.57-10.96,2.15-16,1.78-25.87-1.94-48.66-2.3-37.32-14.22,3.21-3.38,28.29-13.37,35.55-14.22Z"/>
          <path class="cls-24" d="M402.99,572.03c-20.57,7.16-35.63,22.36-46.21,40.88l-3.55-7.11c10.06-15.97,20.24-29.5,33.77-42.66l4.44-1.78c3.68,3.6,7.59,7.41,11.55,10.66Z"/>
          <path class="cls-50" d="M436.76,623.57c9.36,8.19,16.68,22.14,17.77,23.11,2.13,48.81-59.2,82.96-96.87,42.66-22.79-24.38-16-49.98-.89-76.43,10.58-18.52,25.64-33.72,46.21-40.88,41.52,34.01-.57,15.37-5.33,41.77-5.03,27.9,26.08,15.97,39.1,9.78Z"/>
          <path class="cls-40" d="M657.15,723.1c-7.37,4.16-16.26,8.28-23.11,12.44l-36.44-133.3c52.09,16.23,58.53,74.01,59.54,120.86Z"/>
          <path class="cls-21" d="M500.74,609.35c-4.43,12.44-6.63,32.5-17.77,40.88-11.5,8.65-18.48,5.17-28.44-3.55-1.1-.96-8.41-14.92-17.77-23.11.48-.23-2.07-2.53,8-7.11l5.33,1.78c1.72,7.33,6.11,16.1,11.55,21.33,2.89,2.77,1.81,4.65,7.11,5.33,17.98,2.3,12.71-9.13,7.11-19.55-.5-11.04,16.33-14.36,24.88-16Z"/>
          <path class="cls-29" d="M529.18,607.57c-4.06,7.94-42.08,53.72-46.21,42.66,11.14-8.38,13.35-28.44,17.77-40.88,10.68-2.04,17.99-1.55,28.44-1.78Z"/>
        </g>
      </g>
      <g>
        <g>
          <path class="cls-44" d="M641.15,883.06c-5.22,1.02-9.48,8.91-13.33,8.89-9.7-.07-5.88-12.48-6.22-13.33-.88-2.21-9.78-5.2-10.66-3.55-3.14,5.88.84,114.54,0,133.3-1.88,2.99-5.14,2.6-5.33,3.55-4.82,24.19-13.67,45.81-19.55,69.32-3.68,14.71-.53,31.45-10.66,43.54-8.7-6.54-20.15-18.68-24.88-28.44-4.86-10.02-7.11-19.34-8.89-30.21-.18-1.13.16-2.41,0-3.55.72-26.49,11.95-24.27,12.44-25.77.66-2.03-5.69-12.57-3.55-42.66.72-10.21,4.68-21.61,5.33-31.99.92-14.61.8-102.07,3.55-106.64,6.43-10.66,29.42,7.43,31.1,8,29.8,10.02,54.27,7.88,50.65,19.55Z"/>
          <path class="cls-37" d="M833.1,1149.66c-20.94,5.86-38.85,9.58-60.43,12.44-56.75,7.51-105.99,8.95-159.96-12.44l1.78-3.55c.68.21,6.22-.13,14.22,1.78,8.9,2.12,19.38,4.13,28.44,5.33,12.19,1.62,25.03,3.07,37.32,3.55,63.62,2.49,141.99-10.1,199.95-37.32,19.14-8.99,44.82-28.81,52.43-31.99,22.67-9.47-27.73,27.26-32.88,30.21-20.76,11.92-57.46,25.45-80.87,31.99Z"/>
          <path class="cls-12" d="M575.39,1124.78c5.79,4.35,34.46,19.87,39.1,21.33l-1.78,3.55c-24.1-9.55-56.93-26.33-62.21-53.32,4.73,9.76,16.19,21.9,24.88,28.44Z"/>
          <path class="cls-44" d="M641.15,883.06c1.09-.21,2.4.1,3.55,0l-7.11,87.98c0,15.01,2.61,55.21,1.78,63.98-.16,1.66-5.15.11-5.33,1.78-1.21,11.31-4.17,64.76-7.11,69.32-9.86,15.31-5.53-29.9-12.44-16-2.66,5.35.62,17.81,0,21.33-.53,3.01-7.16,20.21-7.11,21.33.54,12.77,20.94,7.84,21.33,15.11-7.99-1.9-13.54-1.56-14.22-1.78-4.64-1.46-33.31-16.98-39.1-21.33,10.14-12.1,6.98-28.84,10.66-43.54,5.88-23.5,14.73-45.13,19.55-69.32.19-.96,3.46-.57,5.33-3.55.84-18.76-3.14-127.42,0-133.3.88-1.65,9.78,1.34,10.66,3.55.34.85-3.48,13.26,6.22,13.33,3.85.03,8.11-7.87,13.33-8.89Z"/>
          <path class="cls-2" d="M982.4,893.73c.3,9.84,1.75,20.67,1.78,30.21.15,55.66,7.97,122.21-37.32,163.52-7.61,3.18-33.29,23-52.43,31.99-57.96,27.23-136.34,39.82-199.95,37.32,1.36-6.84-10.05-1.45-12.44-4.44-2.92-3.64,15.96-55.89,17.77-65.76,51.29-31.81,37.66-111.24,42.66-168.85.12-1.34,6.24-3.57,1.78-25.77,2.96-.06,5.93.12,8.89,0,76.92-3.04,186.69-26.19,222.17-103.09,8.57,43.09,5.85,63.64,7.11,104.86Z"/>
          <path class="cls-15" d="M689.14,890.17v164.4c-10.9,29.23-39.94,69.45-31.99,98.64-9.06-1.2-19.54-3.21-28.44-5.33-.39-7.26-20.79-2.33-21.33-15.11-.05-1.12,6.58-18.32,7.11-21.33.62-3.52-2.66-15.98,0-21.33,6.91-13.9,2.58,31.3,12.44,16,2.94-4.56,5.9-58.01,7.11-69.32.18-1.66,5.17-.12,5.33-1.78.84-8.78-1.79-48.97-1.78-63.98l7.11-87.98c14.38,3.86,29.6,6.24,44.43,7.11Z"/>
          <path class="cls-2" d="M744.24,891.95c4.46,22.2-1.66,24.43-1.78,25.77-4.99,57.6,8.63,137.04-42.66,168.85-1.81,9.87-20.69,62.12-17.77,65.76,2.4,2.99,13.8-2.4,12.44,4.44-12.29-.48-25.13-1.94-37.32-3.55-7.95-29.19,21.1-69.41,31.99-98.64v-164.4c18.58,1.09,36.45,2.16,55.1,1.78Z"/>
        </g>
        <g>
          <path class="cls-44" d="M921.97,696.44c3.6,4.09,7.13,8.3,10.66,12.44,4.1,4.81,6.83,4.99,7.11,5.33,2.84,3.47,6.25,7.15,8.89,10.66,10.16,13.52,13.64,19.57,19.55,35.55,4.51,12.18,4.77,16.68,7.11,28.44-35.48,76.9-145.25,100.05-222.17,103.09,2.3-13.49,17.26-5.92,48.88-14.22,37.42-9.82,125.66-45.33,141.3-82.65,22.89-54.63-28.39-82.16-58.65-117.3-4.14-4.81-10-11.36-7.11-13.33,16.33,9.32,29.57,20.81,44.43,31.99Z"/>
          <g>
            <path class="cls-44" d="M836.66,648.45c9.28.47,14.62,2.34,23.11,5.33,6.87,2.42,11.82,7.27,17.77,10.66-2.89,1.97,2.97,8.52,7.11,13.33,30.26,35.14,81.54,62.68,58.65,117.3-15.64,37.32-103.88,72.82-141.3,82.65-31.62,8.3-46.57.73-48.88,14.22-2.95.12-5.93-.06-8.89,0-18.65.38-36.52-.69-55.1-1.78-14.84-.87-30.06-3.25-44.43-7.11-1.15.1-2.47-.21-3.55,0,3.62-11.67-20.86-9.53-50.65-19.55-1.68-.57-24.68-18.66-31.1-8-2.75,4.57-2.64,92.03-3.55,106.64-.65,10.38-4.61,21.78-5.33,31.99-2.13,30.08,4.22,40.62,3.55,42.66-.49,1.5-11.73-.72-12.44,25.77-7.39-51.34-12.32-221.63,12.44-263.05,11.73-19.61,59.26-51.38,79.98-63.98,6.84-4.16,15.74-8.28,23.11-12.44,3.26-1.84,7.15-3.41,10.66-5.33,36.52-19.96,132.11-71.18,168.85-69.32Z"/>
            <g>
              <path class="cls-53" d="M645.59,801.3c24.43-2.73-8.22,18.71-14.22,19.55-28.35,3.98,3.74-18.38,14.22-19.55Z"/>
              <path class="cls-53" d="M757.57,811.97c18.51-.15-1.75,16.54-10.66,17.77-31.6,4.39,2.13-17.7,10.66-17.77Z"/>
              <path class="cls-53" d="M819.77,808.41c20.52-.3-19.26,31.3-23.99,18.66-1.99-5.31,22.42-18.64,23.99-18.66Z"/>
              <path class="cls-53" d="M698.91,835.07c17.17-.44-12.46,19.5-21.33,19.55-23.7.15,13.45-19.35,21.33-19.55Z"/>
              <path class="cls-19" d="M857.1,689.33c17.6-.81-14.34,20.72-17.77,21.33-25.42,4.51,8.79-20.91,17.77-21.33Z"/>
              <path class="cls-53" d="M608.27,801.3c14.2-.14-20.28,19.86-26.66,19.55-20.08-.97,13.37-19.42,26.66-19.55Z"/>
              <path class="cls-53" d="M782.45,730.21c18.91-1.05-5.67,17.04-10.66,17.77-26.7,3.93.64-17.22,10.66-17.77Z"/>
              <path class="cls-19" d="M915.75,733.76c13.67,4.92-20.69,31.5-23.99,20.44-.96-3.22,21.12-21.47,23.99-20.44Z"/>
              <path class="cls-53" d="M727.35,776.42c32.5-.38-47.51,34.47-19.55,8.89.79-.72,18.48-8.87,19.55-8.89Z"/>
              <path class="cls-53" d="M661.59,740.87c7.03-1.14-12.29,15.78-16,17.77-27.55,14.79-22.78-2.07,16-17.77Z"/>
              <path class="cls-53" d="M878.43,806.64c9.88,1.1-.08,10.35-3.55,12.44-25.5,15.31-13.12-14.3,3.55-12.44Z"/>
              <path class="cls-15" d="M746.9,692.89c12.79,1.18-15.13,21.92-23.99,15.11,3.86-5.63,18.19-15.64,23.99-15.11Z"/>
              <path class="cls-53" d="M809.11,664.45c18.95-2.41,5.59,9.96-18.66,15.11-1.35-2.56,12.19-14.28,18.66-15.11Z"/>
            </g>
          </g>
        </g>
      </g>
      <g>
        <path class="cls-16" d="M383.44,241.44c-8.14,23.06-14.82-25.89-16-27.55-22.65-31.94,17.35,87.44,17.77,94.2,2.79,44.52-25.95-41.56-28.44-51.54-4.93-19.77-6.28-40.3-8.89-60.43-15.11,4.09,3.05,24.72-23.11,52.43-4.39-13.14-5.26-12.81-7.11-28.44-5.32-44.98,6.17-87.06-8-55.1-29.73-8.99-24.42,15.79-31.99,12.44-4.33-6.27-8.1-43.43-12.44-42.66-7.58,1.36,13.92,46.78,6.22,51.54-5.26-1.95-2.13-7.28-7.11-3.55-5.51-7.07-6.24-9.67-9.78-17.77-1.54,12.74-5.98,10.1-6.22,10.66-3.92-3.17-18.69-11.41-23.11-12.44-9.47-34.54,15.34-71.54,45.32-37.32,19.95-40.89,38.12,4.3,40.88,5.33,5.32,1.99,17.43-2.99,21.33,0,8.5,6.52-2.07,32.55,23.99,32.88-5.38,24.58,6.21,29.27,8.89,37.32,5.87,17.69,8.83,45.26,17.77,39.99Z"/>
        <path class="cls-16" d="M264.35,278.76c10.64.88,22.04,7.31,31.99,10.66-4.55,2.47.25,6.57,1.78,8.89-9.37.25-15.56-14.46-24.88-8,13.97,8.41,20.89,14.03,31.99,25.77-14.9,2.12-29.59,6.63-44.43,8.89-4.04.62-4,1.65-7.11,3.55-2-.74-3.36-1.15-5.33-1.78-11.67-10.34-42.2-5.4-43.54-14.22-12.05,7.66-13.54-3.47-29.33,2.67,23.43,5.48,49.87,4.27,72.87,11.55l5.33,1.78c6.18,2.28,27.68,15.64,33.77,21.33-24.8-9.4-46.04-1.31-70.21-14.22-7,.26-21.35,19.03-48.88,12.44-5.37-3.44-17.44-27.65-16-32.88,17.42-8.39,9.82-22.46,32.88-22.22,31,15,52.64-36.64,76.43,21.33,5.5-16.46-22.41-37.61,2.67-35.55Z"/>
        <path class="cls-16" d="M475.86,532.92c7.95-2.96,13.2-9.95,33.77-8.89l8,5.33c-18.89,2.76-54.88,29.7-47.1,50.65l-14.22,22.22c-1.82-1.73-10.78-6.91-14.22-8,19.86-12.3,18.66-17.07,1.78-29.33,12.08,4.52,19.72,13.75,12.44-3.55-3.73-8.87-10.95-18.22-16-26.66-9.08-15.18-17.27-30.21-30.21-42.66-10.21-14.3-15.31-18.49-16-19.55-6.91-10.59-14.5-21.58-19.55-35.55,10.45,4.07,12.32,16.47,19.55-1.78,1.28,1.41,4.59-2.63,5.33-.89,9.17,13.71,61.37,93.83,65.76,97.75,3.88,3.46,5.48,1.99,8,4.44,1.35-.14,2.46-3.48,2.67-3.55Z"/>
        <path class="cls-16" d="M264.35,182.79c6.39,8.21,34.19,32.01,16,39.99,2.09,2.85,3.59,2.45,3.55,2.67-.45,2.74-2.3,1.11-3.55,2.67,16.79,15.78,28.1,62.5,49.77,54.21,2.33,6.18,12.81,16.27,1.78,19.55-3.81-1.99-13.82-2.57-16-3.55-6.6-2.99-7.85-4.94-19.55-8.89-9.95-3.36-21.35-9.79-31.99-10.66,5.26-2.68-1.22-6.39-1.78-8.89-.74-3.34,2.74-4.4,1.78-6.22-6.33-12.01-47.91-23.85-30.21-31.1,9.54-.09,42.74-3.55,43.54-10.66-5.51,1.83-20.68,2.15-25.77,3.55-.82-26.54-13.37-7.04-26.66-15.11,23.57-14.96,32.85-4.1,34.66-4.44,11.94-2.29-3.74-23.9-11.55-30.21.25-.57,4.68,2.08,6.22-10.66,3.53,8.1,4.27,10.7,9.78,17.77Z"/>
        <path class="cls-16" d="M219.92,165.01c4.03,5.9-9.59,17.68,2.67,24.88,4.48,2.63,23.35.18,24.88-1.78.82-1.05-2.58-4.44.89-12.44,7.82,6.32,23.49,27.93,11.55,30.21-1.81.35-11.09-10.52-34.66,4.44,13.29,8.07,25.84-11.43,26.66,15.11-.92.25-15.05,5.99-17.77,7.11-17.69,7.25,23.88,19.09,30.21,31.1.96,1.82-2.52,2.88-1.78,6.22-64.12-15-41.13-19.67-44.43-25.77-9.12-16.84-39.19-23.07-12.44-51.54-4.41-40.5,9.18-27.88,14.22-27.55Z"/>
        <path class="cls-16" d="M298.12,298.32c3.21,4.85,7.32,9.44,10.66,14.22,6.15,8.79,37.83,55.28,37.32,61.32-.33,3.9-5.79,2.63-5.33,7.11.29,2.84,36.06,34.76,40.88,39.99,5.47,8.8,8.26,9.62,12.44,14.22-7.24,18.24-9.1,5.85-19.55,1.78-.19-.52.18-1.25,0-1.78-.12-.34,3.82-2.88,3.55-6.22-.93-3.57-39.09-46.16-44.43-50.65v-5.33c3.2.43,7.9.79,7.11-2.67-11.45-18.38-20.39-38.19-35.55-54.21-11.11-11.74-18.02-17.36-31.99-25.77,9.32-6.46,15.51,8.25,24.88,8Z"/>
        <path class="cls-52" d="M248.36,175.68c-3.47,8-.07,11.4-.89,12.44-1.53,1.96-20.4,4.41-24.88,1.78-12.26-7.21,1.36-18.98-2.67-24.88,3.75.25,4.09-2.07,5.33-1.78,4.41,1.03,19.18,9.27,23.11,12.44Z"/>
        <path class="cls-19" d="M440.31,534.7h-1.78c.13-2.8-2.72-1.34-3.55-1.78-7.1-13.73-15.96-28.38-24.88-40.88,12.94,12.44,21.14,27.48,30.21,42.66Z"/>
        <path class="cls-42" d="M331.89,301.87c3.7,1.94,7.05,4.17,10.66,6.22,11.4,26.23,24.1,51.97,37.32,77.31,10.17,19.49,15.24,34.47,28.44,56.88,6.06,10.29,53.97,80.7,58.65,86.2,2.54,2.98,4.47,5.29,8.89,4.44-.21.08-1.32,3.42-2.67,3.55-2.51-2.46-4.12-.98-8-4.44-4.39-3.92-56.59-84.05-65.76-97.75-.74-1.74-4.05,2.3-5.33.89-4.18-4.6-6.98-5.42-12.44-14.22-12.22-19.67-32.13-71.45-40.88-84.42-5.82-8.64-20.33-16.51-24.88-27.55-1.46-3.53-2.72-7.17,0-10.66,2.18.99,12.19,1.56,16,3.55Z"/>
        <path class="cls-38" d="M271.46,186.34c10.13,3.77.39-15.26,12.44,7.11,5.42,10.07,10.09,20.67,17.77,29.33,16.55,18.64,13.09,12.86,14.22,6.22.69-4.05-1.5-8.85,1.78-8.89,1.85,15.63,2.72,15.3,7.11,28.44,11.33,33.96,42.57,87.26,56.88,124.41-.33,3.88.5,9.31-1.78,12.44-13.22-25.34-25.93-51.09-37.32-77.31-3.62-2.05-6.96-4.28-10.66-6.22,11.04-3.28.55-13.37-1.78-19.55-7.72-20.47-22.22-56.65-46.21-56.88.04-.22-1.46.19-3.55-2.67,18.19-7.99-9.6-31.78-16-39.99,4.98-3.72,1.85,1.6,7.11,3.55Z"/>
        <path class="cls-52" d="M317.67,220.11c-3.28.04-1.09,4.83-1.78,8.89-9.92-3.25,4.4-30.03-5.33-55.99-1.01-1.39-27.45,16.25-26.66,20.44-12.05-22.37-2.31-3.34-12.44-7.11,7.69-4.76-13.8-50.19-6.22-51.54,4.34-.78,8.11,36.39,12.44,42.66,7.57,3.35,2.27-21.43,31.99-12.44,14.17-31.97,2.68,10.12,8,55.1Z"/>
        <path class="cls-42" d="M305.23,316.09c15.16,16.02,24.1,35.83,35.55,54.21.79,3.45-3.91,3.09-7.11,2.67-9.08-1.21-48.83-32.59-59.54-39.1-.78-.48-14.19.56-13.33-8.89,14.84-2.26,29.53-6.76,44.43-8.89Z"/>
        <path class="cls-41" d="M260.8,324.98c-.86,9.44,12.55,8.41,13.33,8.89,10.71,6.52,50.46,37.89,59.54,39.1v5.33c-7.71-6.48-37.53-25.15-46.21-28.44-6.09-5.69-27.59-19.04-33.77-21.33,3.11-1.9,3.07-2.94,7.11-3.55Z"/>
        <path class="cls-13" d="M315.9,298.32c-2.72,3.5-1.46,7.13,0,10.66-4.98-3.74-1.94,1.75-7.11,3.55-3.34-4.78-7.46-9.37-10.66-14.22-1.53-2.31-6.32-6.42-1.78-8.89,11.7,3.94,12.95,5.9,19.55,8.89Z"/>
        <path class="cls-52" d="M248.36,326.75c-23-7.28-49.44-6.07-72.87-11.55,15.79-6.13,17.28,4.99,29.33-2.67,1.35,8.82,31.88,3.87,43.54,14.22Z"/>
        <path class="cls-52" d="M253.69,328.53l-5.33-1.78c1.98.63,3.33,1.04,5.33,1.78Z"/>
        <path class="cls-42" d="M330.11,282.32c-21.67,8.29-32.98-38.43-49.77-54.21,1.26-1.55,3.1.07,3.55-2.67,23.99.22,38.49,36.4,46.21,56.88Z"/>
        <path class="cls-52" d="M234.14,232.55c2.72-1.12,16.85-6.86,17.77-7.11,5.09-1.4,20.26-1.73,25.77-3.55-.8,7.12-34.01,10.57-43.54,10.66Z"/>
        <path class="cls-16" d="M315.9,308.98c4.55,11.04,19.06,18.91,24.88,27.55,8.75,12.98,28.66,64.75,40.88,84.42-4.82-5.23-40.59-37.15-40.88-39.99-.46-4.48,5.01-3.21,5.33-7.11.5-6.04-31.17-52.53-37.32-61.32,5.17-1.81,2.13-7.29,7.11-3.55Z"/>
        <g>
          <path class="cls-16" d="M402.99,548.92c-11.33,11.92,11.45,12.28,37.32,14.22-.1,2.76,2.44,1.36,3.55,1.78,16.88,12.26,18.08,17.03-1.78,29.33,3.44,1.09,12.4,6.27,14.22,8,3.12,2.96,6.03,7.33,8.89,10.66,2.11,2.47,10.28,11.72,10.66,12.44,5.6,10.42,10.87,21.85-7.11,19.55l-7.11-5.33c-5.44-5.23-9.84-14-11.55-21.33l-5.33-1.78c-10.06,4.58-7.51,6.88-8,7.11-13.02,6.2-44.13,18.12-39.1-9.78,4.76-26.4,46.85-7.76,5.33-41.77-3.97-3.25-7.87-7.06-11.55-10.66l-4.44,1.78c-21.63-11.9,11.89-24.4,16-14.22Z"/>
          <path class="cls-42" d="M545.17,532.92c.7.3,3.7,4.42,12.44,8.89,22.22,11.36,139.81,85.84,153.74,99.53,30.48,29.94-49.95-16.16-68.43-28.44-10.67-20.76-113.68-55-130.63-49.77-9.29,7.31-10.85,15.3-11.55,16-7.4,7.29-18.42,18.79-25.77,24.88-4.97,4.12-10.02,1.39-9.78,8.89-2.86-3.34-5.76-7.7-8.89-10.66l14.22-22.22c-7.78-20.95,28.21-47.9,47.1-50.65l-8-5.33c8.82.46,27.33,5.42,35.55,8.89Z"/>
          <path class="cls-46" d="M443.86,564.92c-1.11-.42-3.65.98-3.55-1.78,5.03.38,11.47.79,16-1.78,7.28,17.3-.36,8.07-12.44,3.55Z"/>
          <path class="cls-13" d="M529.18,607.57c-10.44.23-17.76-.26-28.44,1.78-8.55,1.63-25.39,4.95-24.88,16-.39-.72-8.55-9.97-10.66-12.44-.25-7.5,4.8-4.77,9.78-8.89,7.35-6.09,18.37-17.6,25.77-24.88,18.78.6,49.09,5.4,63.1,19.55,17.58,17.76-20.75,8.58-34.66,8.89Z"/>
          <path class="cls-3" d="M468.75,644.9c-5.3-.68-4.22-2.56-7.11-5.33l7.11,5.33Z"/>
        </g>
        <path class="cls-13" d="M315.9,229c-1.13,6.64,2.33,12.42-14.22-6.22-7.69-8.66-12.35-19.26-17.77-29.33-.79-4.19,25.65-21.83,26.66-20.44,9.73,25.96-4.59,52.74,5.33,55.99Z"/>
        <g>
          <path class="cls-13" d="M458.08,117.03c.74.94,8.75,21.03,8.89,22.22,2.12,18.17-5.37,60.12-3.55,80.87-4.41-2.51-3.01-.13-5.33,0,4.82-11.27-4.19-5.27-5.33-8-5.38-12.81,4.89-21.91,5.33-24.88.85-5.73-4.52-37.29-5.33-39.1-4.9-10.96-12.13-3.02-11.55-22.22l-.89,15.11c-20.05,7.26-28.05,27.31-30.21,47.99,7.04,4.69,12.03,10.86,17.77,16.88-9.48-.35,6.77,36.33,5.33,39.99-11.99,6.43-11.91,14.21-12.44,15.11-5.6,9.37-6.86,6.67-7.11,7.11-9.12-9.38-9.6-1.35-5.33,10.66-15.11,27.07-17.84,34.79-23.11,65.76-1.61,9.48-2.73,18.87-3.55,28.44-14.3-37.15-45.54-90.46-56.88-124.41,26.16-27.71,8-48.35,23.11-52.43,2.61,20.13,3.96,40.66,8.89,60.43,2.49,9.98,31.23,96.06,28.44,51.54-.42-6.76-40.42-126.14-17.77-94.2,1.18,1.66,7.86,50.61,16,27.55,2.94-8.33-29.18-86.91,24.88-57.76-1.54-14.69-10-24.98-7.11-40.88,19.23,7.17,11.02-13.9,14.22-21.33.99-2.3,28.48-22.59,42.66-4.44Z"/>
          <path class="cls-13" d="M514.96,220.11c-2.62-.17-1.33,3.59-2.67,3.55-17.97-.43-35.46.23-52.43,7.11-5.53-16.31,3.24-3.66,4.44-3.55,1.4.12,7.73-2.21-.89-7.11-1.82-20.75,5.67-62.7,3.55-80.87-.14-1.19-8.15-21.27-8.89-22.22,26.28-9.32,43.07,43.35,26.66,52.43-7.84,34.69,36.07,20.42,30.21,50.65Z"/>
          <path class="cls-13" d="M427.87,205.89c6.13,6.44,15.45,11.75,21.33,17.77.92.95,5.06,8.32,5.33,10.66-13.08,6.75-22.83,17.24-33.77,26.66.53-.89.45-8.68,12.44-15.11,1.44-3.66-14.81-40.34-5.33-39.99Z"/>
          <path class="cls-38" d="M458.08,220.11c2.33-.13.92-2.51,5.33,0,8.62,4.9,2.29,7.23.89,7.11-1.21-.11-9.97-12.76-4.44,3.55-.3.12.22.69-5.33,3.55-.27-2.35-4.41-9.72-5.33-10.66,7.95-7.98,5.47-3.36,8.89-3.55Z"/>
          <path class="cls-6" d="M413.65,268.1c-.3.52-1.36,3.54-5.33,10.66-4.27-12.02-3.79-20.04,5.33-10.66Z"/>
          <g>
            <path class="cls-16" d="M458.08,220.11c-3.42.19-.94-4.43-8.89,3.55-5.88-6.02-15.2-11.34-21.33-17.77-5.74-6.03-10.73-12.2-17.77-16.88,2.17-20.68,10.16-40.73,30.21-47.99l.89-15.11c-.58,19.2,6.65,11.26,11.55,22.22.81,1.81,6.18,33.38,5.33,39.1-.44,2.97-10.72,12.08-5.33,24.88,1.15,2.72,10.15-3.27,5.33,8Z"/>
            <path class="cls-13" d="M443.86,188.12c.25,1.61,7.66,21.15,4.44,28.44-3.29,1.27-17.67-13.14-20.44-16-1.54-11.92,4.91-16.15,16-12.44Z"/>
            <path class="cls-16" d="M443.86,188.12c-11.09-3.71-17.53.52-16,12.44-3.39-3.5-6.72-6.88-10.66-9.78,13.39-1.68,20.95-33.01,26.66-24.88.64.91-.36,19.9,0,22.22Z"/>
          </g>
        </g>
      </g>
      <g>
        <g>
          <path class="cls-49" d="M93.73,870.62c-.1,6.8-5.72,16.47,1.78,18.66-25.12,13.14-53.13,2.77-78.2-6.22-20.42-17.9,2.63-23.32-1.78-42.66,11.97.76,3.13-31.16,3.55-55.1.69-38.48,5.14-80.37,31.99-111.08,28.93-33.09,46.76-16.34,98.64-43.54,44.25-23.2,89.42-57.03,109.31-103.97,5.81-13.71,18.77-53.96,10.66-52.43,2.51-.27,1.88-12.48,47.1,0,24.78,6.84,47.16,22.73,68.43,36.44-124.94,56.13-184.05,51.22-193.73,209.73-33.03,14.58-63.87,37.2-81.76,69.32-17.15,30.79-15.53,49.86-16,80.87Z"/>
          <path class="cls-45" d="M399.43,502.71c9.01,6.4,29.08,26.81,35.55,30.21.83.44,3.69-1.02,3.55,1.78-7.25.85-32.33,10.84-35.55,14.22-4.11-10.18-37.63,2.32-16,14.22-13.53,13.15-23.71,26.68-33.77,42.66-46.33,73.55-19.75,114.46-19.55,159.96.02,3.58,1.14,7.41-3.55,8.89-26.17-62.3-114.45-79.94-182.18-24.88-39.5,32.11-50.76,72.37-52.43,120.86h-1.78c.46-31.01-1.15-50.08,16-80.87,17.88-32.12,48.73-54.74,81.76-69.32,9.68-158.5,68.79-153.59,193.73-209.73-21.27-13.71-43.65-29.6-68.43-36.44-45.22-12.48-44.59-.27-47.1,0-70.5,7.57-104.63,9.18-160.85,58.65-52.65,46.34-91.75,123.62-95.09,193.73-7.76,2.15-7.26-15.48-10.66-21.33,12.35-94.3,69.01-173.98,151.96-220.39,92.06-51.51,160.14-42.04,244.38,17.77Z"/>
          <path class="cls-33" d="M13.75,726.65c-.92,19.41-.43,39.95,5.33,58.65-.43,23.93,8.41,55.86-3.55,55.1C-.82,796.44-2.94,751.29,3.08,705.33c3.4,5.85,2.9,23.48,10.66,21.33Z"/>
          <path class="cls-45" d="M97.28,891.95l-1.78,1.78c-21.6,9.89-60.96,4.45-78.2-10.66,25.07,8.99,53.09,19.36,78.2,6.22-7.49-2.19-1.88-11.86-1.78-18.66h1.78c-.32,9.32,3.15,17.35,1.78,21.33Z"/>
          <path class="cls-5" d="M269.69,474.27c8.1-1.53-4.86,38.73-10.66,52.43-19.88,46.94-65.06,80.77-109.31,103.97-51.88,27.21-69.72,10.46-98.64,43.54-26.85,30.71-31.31,72.61-31.99,111.08-5.76-18.71-6.26-39.24-5.33-58.65,3.34-70.11,42.43-147.39,95.09-193.73,56.22-49.47,90.35-51.09,160.85-58.65Z"/>
        </g>
        <g>
          <path class="cls-25" d="M346.11,835.07l-2.67-3.55c4.14,21.07,9.67,43.49,8,65.76-4.62,8.88-10.05,17.66-14.22,26.66-8.85.15,2.88-7.01-.89-8.89-9.71-4.84-20.34,13.42-28.44,19.55-17.34,13.12-36.35,22.94-47.1,42.66-1.86.48-10.04,3.66-11.55,5.33-8.2-.24-15.74,1.95-23.99,1.78-7.56-.16-42.87-3.47-35.55-12.44,87.88,9.63,185.78-89.28,140.41-197.29,4.69-1.47,3.57-5.31,3.55-8.89l7.11,9.78c-12.22-9.52,4.66,46.42,5.33,59.54Z"/>
          <path class="cls-25" d="M337.22,923.94c-3.34,7.2-7.27,14.15-10.66,21.33-7.15-.61-16.59,13.39-27.55,19.55-9.6,5.4-24.36,8.23-33.77,14.22-2.01.95-2.96-2.16-4.44-1.78,10.75-19.72,29.76-29.53,47.1-42.66,8.1-6.13,18.73-24.39,28.44-19.55,3.77,1.88-7.96,9.03.89,8.89Z"/>
          <g>
            <path class="cls-15" d="M159.49,963.04v1.78c-11.14-6.57-50.42-8.01-63.98-71.09l1.78-1.78c16.94,30.86,28.89,55.04,62.21,71.09Z"/>
            <path class="cls-18" d="M330.11,774.64c45.37,108-52.53,206.91-140.41,197.29-13.1-1.44-18.45-3.22-30.21-8.89-33.31-16.05-45.27-40.23-62.21-71.09,1.37-3.98-2.1-12.01-1.78-21.33,1.68-48.49,12.93-88.75,52.43-120.86,67.72-55.06,156.01-37.41,182.18,24.88Z"/>
            <g>
              <path class="cls-31" d="M226.14,735.54c106.41-7.1,129.94,125.96,47.99,190.18-105.45,82.62-203.87-31.1-139.52-134.19,18.1-29,57.3-53.7,91.53-55.99Z"/>
              <path class="cls-15" d="M208.37,819.08c14.23-3.95,36.37,8.02,27.55,27.55-16.12,35.69-65.74-16.94-27.55-27.55Z"/>
            </g>
          </g>
        </g>
      </g>
      <g>
        <g>
          <path class="cls-30" d="M1252.56,554.25c46.91,26.03,85.62,71.23,99.53,123.53.63,2.38-2.36,2.89-1.78,5.33.35,1.47,3.24.31,3.55,1.78.17.78-.18,14.5,0,16,.17,1.41,3.41.38,3.55,1.78.38,3.62.38,49.27,0,53.32-.13,1.39-3.4.38-3.55,1.78-.1.88,1.71,7.7,0,17.77-.24,1.44-3.29.34-3.55,1.78-.42,2.24,2.62,3.2,1.78,7.11-1.21,5.62-8.54,20.23-8.89,21.33-.16.51,1.88,5.49,0,10.66-8.75,24.11-25.25,49.88-40.88,70.21-2.22,2.89-1.65,3.4-1.78,3.55-1.08,1.34-9.98,9.71-14.22,14.22.84-3.78,5.24-12.7,7.11-16,25.83-45.44,49.29-68.55,55.1-134.19,7.33-82.75-26.71-132.71-87.09-183.96-8.49-7.2-18.11-14.16-24.88-23.11h1.78c4.66,2.5,9.6,4.54,14.22,7.11Z"/>
          <path class="cls-19" d="M1222.34,573.8c26.33,11.94,45.17,46.64,39.1-3.55,60.38,51.25,94.42,101.2,87.09,183.96-5.81,65.64-29.27,88.75-55.1,134.19-31.65,4.41-52.92-2.06-70.21-1.78-64.38,1.03-103.56,23.1-177.73-42.66-21.78-19.31-36.42-43.85-55.99-64.87-7.22-7.76-16.24-16.45-21.33-18.66-5.91-15.98-9.39-22.03-19.55-35.55,8.64,4.33,17.22,8.13,24.88,14.22,11.78,9.35,27.14,26.78,39.99,35.55,48.39,33.01,145.64,55.65,199.06,24.88,65.93-37.98,72.68-165.95.89-200.84-11.85-13.59-27.27-25.27-39.1-39.1,14.57,4.96,35.67,8.63,47.99,14.22Z"/>
          <path class="cls-28" d="M1293.44,888.39c-1.87,3.29-6.27,12.22-7.11,16-1.82,1.93-3.47,5.27-5.33,7.11-5.69,5.62-48.1,40.18-52.43,42.66-2.7,1.54-5.08-1.91-5.33-1.78-22.53,12.11-36.19,20.84-63.1,24.88-7.3,1.1-15.69,1.36-23.11,1.78-5.26.3-10.71.03-16,0-24.36-.16-34.74-.95-58.65-7.11,16.18-4.57-17.6-14.18-39.99-33.77-14.37-12.57-25.05-32.07-39.99-44.43-1.26-41.22,1.46-61.77-7.11-104.86-2.34-11.76-2.6-16.25-7.11-28.44,5.09,2.22,14.11,10.9,21.33,18.66,19.57,21.02,34.2,45.56,55.99,64.87,74.18,65.76,113.36,43.69,177.73,42.66,17.29-.28,38.56,6.19,70.21,1.78Z"/>
          <path class="cls-28" d="M1211.68,534.7c4.76,3.37,11.23,3.74,16,7.11,2.61,1.85,7.22,2.46,8.89,5.33,6.77,8.95,16.39,15.9,24.88,23.11,6.07,50.2-12.77,15.49-39.1,3.55-2.71-5.56-21.08-25.35-21.33-27.55-.37-3.23,6.41-17.28,10.66-11.55Z"/>
          <path class="cls-3" d="M1062.38,971.93c-6.59-1.7-20.8-6.29-26.66-8.89-22.8-10.12-33.97-22.64-51.54-39.1-.03-9.55-1.48-20.38-1.78-30.21,14.94,12.36,25.63,31.86,39.99,44.43,22.39,19.59,56.17,29.2,39.99,33.77Z"/>
          <path class="cls-31" d="M1147.69,529.37c.35,5.88-11.53,11.08-10.66,15.11.82,3.8,11.65,5.11,14.22,6.22,7.3,3.15,15.59,6.33,23.11,8.89,11.83,13.83,27.25,25.51,39.1,39.1,29.4,33.72,45.69,58.14,40.88,105.75-4.09,40.5-45.71,96.49-87.98,102.2-29.76,4.02-96.57-10.45-124.41-23.11-18.99-8.63-47.16-37.05-68.43-44.43-7.67-6.08-16.24-9.89-24.88-14.22-2.64-3.52-6.05-7.19-8.89-10.66,17.56.28,17.65,5.83,31.99-7.11,11.22,18.03,31.71,34.54,47.99,47.99,3.36,2.78,8.84,11.23,13.33,14.22,66.38,44.19,120.99-27.45,148.41-80.87.95-1.85,4.39.07,5.33-1.78,2.3-4.53-3.96-12.56,5.33-12.44-6.94-1.11,12.09-23.42,14.22-37.32,4.09-26.72-28.2-22.55-56.88-47.99-9.84-10.23-26.51-46.99-16-57.76,4.59-.85,9.87-.49,14.22-1.78Z"/>
          <g>
            <path class="cls-31" d="M1126.36,531.15c2.24-.42,4.87.42,7.11,0-10.51,10.78,6.15,47.53,16,57.76,28.67,25.44,60.96,21.27,56.88,47.99-2.13,13.9-21.16,36.21-14.22,37.32-9.29-.12-3.03,7.91-5.33,12.44-.94,1.85-4.38-.07-5.33,1.78-27.42,53.42-82.03,125.05-148.41,80.87-4.49-2.99-9.97-11.44-13.33-14.22,7.57-70.64,54.56-148.82,132.41-152.85,1.12-.55-1.2-4.84-1.78-5.33-2.86-2.45-64.72-24.23-71.09-24.88-75.36-7.75-121.43,75.12-118.19,112.86.82,9.53,6.06,14.81,10.66,22.22-14.34,12.94-14.43,7.38-31.99,7.11-.28-.34-3.01-.53-7.11-5.33,3.7-46.72,25.2-93.26,58.65-126.19,5.26-5.18,15.27-13.48,21.33-17.77,2.09-1.48,15.15-10.22,16-10.66,2.08-1.09,11.21-3.47,16-5.33,4.03-1.57,13.46-6.89,14.22-7.11,1.39-.41,22.2-4.08,28.44-5.33,12.91-2.59,26.14-2.87,39.1-5.33Z"/>
            <path class="cls-35" d="M1019.72,755.09c-16.28-13.45-36.77-29.96-47.99-47.99-4.61-7.41-9.85-12.69-10.66-22.22-3.24-37.74,42.84-120.62,118.19-112.86,6.37.66,68.23,22.43,71.09,24.88.58.49,2.89,4.78,1.78,5.33-77.85,4.03-124.84,82.21-132.41,152.85Z"/>
          </g>
          <path class="cls-30" d="M973.51,739.1c21.27,7.38,49.44,35.8,68.43,44.43,27.84,12.66,94.65,27.12,124.41,23.11,42.27-5.71,83.89-61.7,87.98-102.2,4.81-47.61-11.48-72.04-40.88-105.75,71.79,34.89,65.04,162.86-.89,200.84-53.42,30.77-150.67,8.13-199.06-24.88-12.85-8.76-28.21-26.2-39.99-35.55Z"/>
          <path class="cls-10" d="M1174.35,540.03c-1.89.03-16.27,9.02-23.11,10.66-2.57-1.11-13.4-2.42-14.22-6.22-.87-4.03,11.01-9.23,10.66-15.11,2.8-.83,6.18-2.32,8.89-3.55,18.05-2.44,23.57-12.63,17.77,14.22Z"/>
        </g>
        <g>
          <g>
            <path class="cls-17" d="M1284.55,500.93c-2.16-3.76-10.24-6.63-10.66-7.11-13.95-15.81,6.34-7.57,1.78-33.77-3.74-21.48-27.18-19.22-38.21-3.55-29.04-25.92-22.5-10.61-26.66-10.66-4.63-.06-11.01-9.41-16.88-1.78-.16-.34-4.62-1.99-5.33-5.33,13.94,2.19,18.18-20.04,23.11-31.99.21-.5,4.7,1.35,6.22-8.89l-63.1-30.21c-.83-5.35-2.26-20.24-4.44-23.11-2.56-3.36-50.44-22.98-59.54-20.44q7.55-14.66,15.11-29.33c-15.39,6.86-19.56,38.28-34.66,31.99,1.53-7.82-1.27-10.53,1.78-15.11-18.6-12.48-10.54-35.74-37.32-13.33,21.88-35.1,65.66-34.85,103.97-31.99,72.43,5.39,151.55,63.14,160.85,137.74,24.64,26.38,31.8,92.32-16,96.87Z"/>
            <path class="cls-20" d="M1071.27,326.75c-.33,1.71-4.87,15.29-5.33,16-3.83,5.83-10.71,11.16-17.77,12.44-13.84,2.51-14.4-6.76-24.88-10.66-2.28-18.17,3.02-31.09,12.44-46.21,26.78-22.41,18.72.85,37.32,13.33-3.05,4.58-.25,7.28-1.78,15.11Z"/>
          </g>
          <path class="cls-42" d="M1023.28,344.53c10.48,3.91,11.04,13.17,24.88,10.66.15,5.52,1.11,10.62,1.78,16-1.68,35.36-9.56-27.01-55.99-17.77-8.71,1.73-26.32,19.67-31.1,27.55-10.7,17.63-25.7,69.25-5.33,82.65h-1.78c-34.09-25.95.21-122.11,44.43-124.41,1.18-.06,19.78,4.09,23.11,5.33Z"/>
          <path class="cls-20" d="M1273.88,493.82c.42.48,8.5,3.35,10.66,7.11,12.36,21.45-9.97,50.29-31.99,53.32-4.62-2.56-9.56-4.6-14.22-7.11,7.62-7.94,6.71-10.17,7.11-10.66.6-.74,4.66-3.04,10.66-12.44,2.24-3.51,10.49-11.6,12.44-16.88,1.8-4.87-4.11-15.23,5.33-13.33Z"/>
          <path class="cls-20" d="M1014.39,508.04c-12.4,7.16-3.27,26.12-14.22,43.54-12.9,4.82-13.21,16.77-16.88,18.66-9.55,4.92-14.51-2.92-13.33,3.55-5.66-2.84-17.89-5.21-17.77-13.33.05-3.67,32.37-54.73,37.32-63.1,9.27-15.68,15.31-29.02,21.33-39.1,4.15,16.53,3.54,32.95,3.55,49.77Z"/>
          <path class="cls-51" d="M1014.39,508.04c.03,40.1-9.42,59.16-1.78,56.87-6.06,4.3-16.07,12.59-21.33,17.77-7.2-2.11-14.65-5.54-21.33-8.89-1.18-6.48,3.78,1.37,13.33-3.55,3.68-1.9,3.98-13.85,16.88-18.66,10.95-17.42,1.82-36.39,14.22-43.54Z"/>
          <path class="cls-8" d="M1016.17,452.94c-3.05,4.53-5.14,5.01-5.33,5.33-6.02,10.08-12.05,23.43-21.33,39.1l-16.88-26.66c-10.51,1.83-13.25-4.34-16.88-7.11h1.78c6.95,4.57,9.64,1.55,16.88,3.55.26-.09-.75-4.75-.89-5.33,14.98,12.82,28.45-3.57,42.66-8.89Z"/>
          <path class="cls-8" d="M1154.8,367.63c.4,2.62-1.06,18.48,0,20.44.89,1.66,12.51,2.73,16,4.44.82.4,3.4,1.65,3.55,1.78-4.97,18.92-13.81,36.29-21.33,54.21-.08.18,2.61,1.58,1.78,3.55-.27.65-3.15.32-5.33,5.33-.85,1.95,1.86,3.37,1.78,3.55-.53,1.19-6.56,2.35-7.11,3.55-1.4,3.1,1.89,5.08,1.78,5.33-1.24,2.72-4.84,2.5-5.33,3.55-2.43,5.21.75,5.55,0,7.11-17.23,35.99-37.62,53.73-14.22,48.88v1.78c-12.97,2.46-26.19,2.74-39.1,5.33,3.65-10.55,15.69-24.51,19.55-31.1.63-1.07-.61-5.17,0-6.22,3.98-6.8,8.79-12.15,12.44-19.55,4.46-9.03,9.12-14.66,12.44-24.88,19.94-61.29,3.77-158.63-65.76-111.97.46-.7,5-14.29,5.33-16,15.1,6.29,19.26-25.14,34.66-31.99q-7.55,14.66-15.11,29.33c9.11-2.54,56.98,17.08,59.54,20.44,2.18,2.86,3.62,17.76,4.44,23.11Z"/>
          <path class="cls-51" d="M1275.66,460.05c-3.93,1.02-.53,10.32-1.78,13.33-5.58,13.46-30.73,11.47-39.1,8-2.99-1.2-31.59-22.55-33.77-24.88-3.72-3.99-6.83-6.69-7.11-7.11-.5-.75.51-4.25,0-5.33,5.87-7.63,12.25,1.72,16.88,1.78,4.16.06-2.38-15.26,26.66,10.66,11.03-15.67,34.47-17.93,38.21,3.55Z"/>
          <path class="cls-23" d="M1273.88,493.82c-9.44-1.9-3.53,8.46-5.33,13.33-1.95,5.28-10.2,13.37-12.44,16.88-1.99-1.98-13.53-12.44-16-9.78-2.25,2.44,2.42,36.23,4.44,16.88l.89,5.33c-.4.5.51,2.72-7.11,10.66h-1.78c-1.67-2.87-6.27-3.48-8.89-5.33.92-13.26-1.62-27.78,3.55-39.99l-21.33-20.44c.71-.84-4.25-3.74.89-3.55,4.84,2.43,27.82,19.54,23.99,3.55,8.37,3.47,33.52,5.46,39.1-8,1.25-3.01-2.15-12.31,1.78-13.33,4.56,26.2-15.72,17.96-1.78,33.77Z"/>
          <path class="cls-9" d="M1211.68,406.73c-16.01.17-19.61-10.75-21.33-3.55-.95-6.93-11.74-13.87-19.55-10.66-3.48-1.72-15.1-2.78-16-4.44-1.06-1.96.4-17.82,0-20.44l63.1,30.21c-1.52,10.23-6.01,8.39-6.22,8.89Z"/>
          <path class="cls-47" d="M1211.68,406.73c-4.93,11.95-9.16,34.18-23.11,31.99-.99-4.65.65-14.53,0-21.33-.7-7.33,2.28-10.57,1.78-14.22,1.72-7.2,5.32,3.72,21.33,3.55Z"/>
          <path class="cls-20" d="M1188.57,417.4c.65,6.8-.99,16.68,0,21.33.71,3.35,5.17,4.99,5.33,5.33.51,1.08-.5,4.58,0,5.33l-17.77,3.55c1.82-13.19,5.59-26.86,9.78-39.1l2.67,3.55Z"/>
          <path class="cls-16" d="M1131.7,454.72c-2.83-15.63-.34-32.27-1.78-47.99-.47-5.18,2.88-11.73-9.78-31.99-24.66,12.38-42.92,8.15-68.43,3.55-.36-2.83-1.43-4.28-1.78-7.11-.66-5.38-1.63-10.48-1.78-16,7.07-1.28,13.95-6.61,17.77-12.44,69.53-46.66,85.7,50.68,65.76,111.97Z"/>
          <path class="cls-16" d="M1049.94,371.19c.35,2.82,1.42,4.28,1.78,7.11,1.96,15.59,1.18,33.92,10.66,47.99-7.93-6.52-17.08.36-26.66-1.78-11.59-2.59-5.27-10.75-16.88-14.22-17.04-5.09-23.33,11.03-42.66,3.55-20.82,20.41-3.93,42.72-2.67,47.99.14.58,1.14,5.25.89,5.33-7.24-2-9.93,1.02-16.88-3.55-20.37-13.39-5.37-65.02,5.33-82.65,4.78-7.88,22.4-25.82,31.1-27.55,46.43-9.24,54.31,53.14,55.99,17.77Z"/>
          <path class="cls-51" d="M1256.11,524.04c-6,9.4-10.06,11.7-10.66,12.44l-.89-5.33c-2.03,19.35-6.69-14.45-4.44-16.88,2.46-2.67,14,7.79,16,9.78Z"/>
          <path class="cls-8" d="M1030.39,436.95c.08,17.36,22.3,71.62,5.33,96.87,2.42,3.89,3.33,7.62,3.55,8-9.15-4.59-9.25,4.61-10.66,12.44-.85.45-13.9,9.18-16,10.66-7.64,2.29,1.81-16.78,1.78-56.87-.01-16.82.59-33.23-3.55-49.77.19-.32,2.28-.81,5.33-5.33,5.51-8.16,7.24-17.89,14.22-16Z"/>
          <path class="cls-38" d="M1099.7,404.96c2.33,8.19,3.86,16.5,5.33,24.88,4.34,24.65,1,44.6,1.78,69.32-.61,1.05.63,5.15,0,6.22-3.86,6.59-15.9,20.56-19.55,31.1-6.23,1.25-27.05,4.92-28.44,5.33,2.76-11.38,9.12-21.62,14.22-31.99,28.53-58.1,17.81-65.55,23.11-99.53.7-4.49-2.12-4.04,3.55-5.33Z"/>
          <path class="cls-41" d="M1073.04,509.82c-5.09,10.38-11.46,20.61-14.22,31.99-.76.22-10.19,5.54-14.22,7.11-.13-1.42.23-3.16,0-3.55,20.72-14.29-6.58-65.18,3.55-81.76,9.88,22.64,20.35,57.39,24.88,46.21Z"/>
          <path class="cls-38" d="M1172.58,479.6c1.07,2.44.78,20.21,5.33,31.1-.43,2.03-18.44,13.78-21.33,15.11-2.7,1.24-6.09,2.73-8.89,3.55-4.35,1.29-9.63.93-14.22,1.78-2.24.42-4.87-.42-7.11,0v-1.78c11.87-2.46,30.19-26.68,37.32-37.32,6.27-9.37,6.41-18.09,8.89-12.44Z"/>
          <path class="cls-32" d="M1039.27,541.81c.17.27,5.17,3.28,5.33,3.55.23.39-.13,2.14,0,3.55-4.78,1.86-13.92,4.24-16,5.33,1.42-7.83,1.52-17.04,10.66-12.44Z"/>
          <path class="cls-20" d="M1035.72,424.51c-8.21.57-2.93,4.12-3.55,7.11-.73,3.53-1.78,4.72-1.78,5.33-6.98-1.89-8.71,7.84-14.22,16-14.2,5.32-27.68,21.71-42.66,8.89-1.27-5.27-18.16-27.58,2.67-47.99,19.33,7.47,25.62-8.65,42.66-3.55,11.62,3.47,5.29,11.63,16.88,14.22Z"/>
          <path class="cls-16" d="M1163.69,492.05c-7.13,10.65-25.45,34.86-37.32,37.32-23.4,4.85-3.01-12.88,14.22-48.88.75-1.56-2.43-1.9,0-7.11.49-1.06,4.09-.83,5.33-3.55.12-.26-3.18-2.23-1.78-5.33.54-1.2,6.58-2.36,7.11-3.55.08-.18-2.63-1.6-1.78-3.55,2.18-5.01,5.06-4.68,5.33-5.33.83-1.97-1.85-3.37-1.78-3.55,7.52-17.92,16.36-35.28,21.33-54.21,9.18,7.27,1.9,17.58,1.78,18.66-.94,8.41-.72,16.54-3.55,24.88-5.58,9.63-11.51,18.87-10.66,30.21-19.78,13.18-33.24,43.36-18.66,38.21,1.4-.49,15.48-24.17,20.44-14.22Z"/>
          <path class="cls-16" d="M1190.35,403.18c.5,3.65-2.48,6.89-1.78,14.22l-2.67-3.55c-4.18,12.25-7.96,25.91-9.78,39.1l-7.11,15.11c-.68,4.6,1.99,7.46,3.55,11.55-2.48-5.65-2.61,3.08-8.89,12.44-4.96-9.95-19.04,13.73-20.44,14.22-14.57,5.15-1.11-25.04,18.66-38.21-.85-11.34,5.08-20.58,10.66-30.21,2.83-8.35,2.61-16.47,3.55-24.88.12-1.08,7.4-11.39-1.78-18.66-.16-.12-2.73-1.37-3.55-1.78,7.81-3.21,18.6,3.74,19.55,10.66Z"/>
          <path class="cls-42" d="M1129.92,406.73c1.43,15.72-1.05,32.36,1.78,47.99-3.32,10.22-7.99,15.85-12.44,24.88l-3.55.89c1.12-11.65,2.93-38.89,0-48.88,6.19-7.92,7.19-26.17-3.55-30.21v-1.78c7.55-5.12,16.78-4.15,17.77,7.11Z"/>
          <path class="cls-16" d="M1115.7,431.62c2.93,9.98,1.12,37.22,0,48.88l3.55-.89c-3.65,7.4-8.46,12.76-12.44,19.55-.78-24.72,2.56-44.66-1.78-69.32,7.39.95,4.32-19.87,10.66,1.78Z"/>
          <path class="cls-22" d="M1234.78,481.38c3.82,15.98-19.15-1.13-23.99-3.55-5.14-.18-.18,2.71-.89,3.55-6.71,7.95,2.12,34.92-5.33,48.88,9.64.69,6.77,4.2,7.11,4.44-4.25-5.72-11.03,8.32-10.66,11.55.25,2.2,18.61,21.99,21.33,27.55-12.32-5.59-33.42-9.26-47.99-14.22-7.52-2.56-15.81-5.74-23.11-8.89,6.83-1.64,21.22-10.63,23.11-10.66,8.9-.14,8.92,9.95,11.55,8.89l-2.67-22.22c1.03-1.54,1.46,1.27,7.11.89.22-.02,1.59,3.79,2.67,3.55,4.43-.96,21.88-41.43-4.44-56.88-1-.59-4.55,1.93-3.55-5.33,2.7-5.67,13.05-7.06,16-12.44,2.18,2.34,30.78,23.68,33.77,24.88Z"/>
          <path class="cls-48" d="M1201.01,456.5c-2.94,5.39-13.3,6.78-16,12.44-3.38,7.1-2.13,37.6-12.44,10.66-1.57-4.1-4.23-6.95-3.55-11.55l7.11-15.11,17.77-3.55c.28.42,3.39,3.12,7.11,7.11Z"/>
          <path class="cls-23" d="M1209.9,481.38l21.33,20.44c-5.18,12.21-2.64,26.73-3.55,39.99-4.76-3.37-11.24-3.74-16-7.11-.34-.24,2.53-3.75-7.11-4.44,7.45-13.95-1.38-40.93,5.33-48.88Z"/>
          <path class="cls-9" d="M1129.92,406.73c-.99-11.26-10.23-12.23-17.77-7.11-1.51,1.03-10.91,2.32,0,5.33-1.91,11.26-.1-2.82-12.44,0-5.68,1.29-2.85.84-3.55,5.33-31.79,16.05-24.84,29.25-33.77,16-9.48-14.07-8.7-32.4-10.66-47.99,25.51,4.59,43.77,8.82,68.43-3.55,12.65,20.26,9.3,26.82,9.78,31.99Z"/>
          <path class="cls-42" d="M1096.15,410.29c-5.3,33.98,5.42,41.43-23.11,99.53-4.53,11.18-15-23.57-24.88-46.21-4.78-10.95-9.02-22.16-16-31.99.62-2.99-4.65-6.54,3.55-7.11,9.58,2.14,18.73-4.74,26.66,1.78,8.93,13.25,1.98.05,33.77-16Z"/>
          <path class="cls-16" d="M1048.16,463.61c-10.13,16.58,17.16,67.47-3.55,81.76-.16-.28-5.17-3.28-5.33-3.55-.23-.38-1.14-4.11-3.55-8,16.97-25.25-5.25-79.5-5.33-96.87,0-.61,1.04-1.8,1.78-5.33,6.98,9.83,11.22,21.05,16,31.99Z"/>
          <path class="cls-16" d="M1115.7,431.62c-6.34-21.65-3.28-.83-10.66-1.78-1.48-8.38-3-16.69-5.33-24.88,12.34-2.82,10.53,11.26,12.44,0,.19-1.13-.09-2.39,0-3.55,10.75,4.04,9.74,22.29,3.55,30.21Z"/>
          <path class="cls-43" d="M1188.57,474.27l1.78,53.32c-5.65.38-6.08-2.42-7.11-.89l2.67,22.22c-2.64,1.07-2.66-9.03-11.55-8.89,5.79-26.85.27-16.66-17.77-14.22,2.89-1.32,20.9-13.08,21.33-15.11-4.55-10.89-4.26-28.67-5.33-31.1,10.31,26.93,9.06-3.57,12.44-10.66-.99,7.26,2.55,4.75,3.55,5.33Z"/>
          <path class="cls-36" d="M1112.15,399.62v1.78c-.09,1.16.19,2.43,0,3.55-10.91-3.01-1.51-4.3,0-5.33Z"/>
          <path class="cls-38" d="M1190.35,527.59l-1.78-53.32c26.32,15.45,8.87,55.91,4.44,56.88-1.07.23-2.44-3.57-2.67-3.55Z"/>
        </g>
      </g>
    </g>
  </g>
</svg>