<?xml version="1.0" encoding="UTF-8"?>
<svg id="Layer_2" data-name="Layer 2" xmlns="http://www.w3.org/2000/svg" viewBox="0 0 1162.82 395.43">
  <defs>
    <style>
      .cls-1 {
        fill: #ffca3a;
      }

      .cls-1, .cls-2, .cls-3, .cls-4, .cls-5, .cls-6, .cls-7, .cls-8, .cls-9, .cls-10, .cls-11 {
        stroke-width: 0px;
      }

      .cls-3 {
        fill: #ff595e;
      }

      .cls-4 {
        fill: #ccc;
      }

      .cls-5 {
        fill: #fff;
      }

      .cls-6 {
        fill: #c2595e;
      }

      .cls-7 {
        fill: #6f8b00;
      }

      .cls-8 {
        fill: #1982c4;
      }

      .cls-9 {
        fill: #8ac926;
      }

      .cls-10 {
        fill: #e89210;
      }

      .cls-11 {
        fill: #005d97;
      }
    </style>
  </defs>
  <g id="Books">
    <g>
      <polygon class="cls-1" points="0 244.37 217.48 342.11 395.42 262.14 177.95 164.39 0 244.37"/>
      <polygon class="cls-1" points="217.48 342.11 217.49 395.43 0 297.68 0 244.37 217.48 342.11"/>
      <polygon class="cls-10" points="217.49 395.43 395.43 315.46 395.42 262.14 217.48 342.11 217.49 395.43"/>
      <polygon class="cls-8" points="39.55 57.76 39.55 244.37 88.98 266.58 88.97 79.97 39.55 57.76"/>
      <polygon class="cls-11" points="217.49 22.22 217.49 208.81 88.97 266.58 88.99 79.97 217.49 22.22"/>
      <polygon class="cls-8" points="207.6 17.77 88.97 71.09 59.32 57.76 177.94 4.44 168.06 0 39.55 57.76 88.99 79.97 217.49 22.22 207.6 17.77"/>
      <polygon class="cls-5" points="168.07 8.88 197.71 22.22 88.97 71.09 59.32 57.76 168.07 8.88"/>
      <polygon class="cls-11" points="177.94 4.44 177.95 13.33 168.07 8.88 177.94 4.44"/>
      <polygon class="cls-3" points="98.86 84.42 98.87 271.02 148.3 293.24 148.28 106.63 98.86 84.42"/>
      <polygon class="cls-6" points="276.8 48.87 276.81 235.47 148.29 293.24 148.3 106.63 276.8 48.87"/>
      <polygon class="cls-3" points="266.92 44.43 148.29 97.74 118.64 84.42 237.26 31.1 227.37 26.66 98.86 84.42 148.3 106.63 276.8 48.87 266.92 44.43"/>
      <polygon class="cls-5" points="227.38 35.54 257.02 48.87 148.29 97.74 118.64 84.42 227.38 35.54"/>
      <polygon class="cls-6" points="237.26 31.1 237.27 39.99 227.38 35.54 237.26 31.1"/>
      <polygon class="cls-5" points="187.83 124.41 187.82 168.84 98.86 208.82 98.86 164.39 187.82 124.41 187.83 124.41"/>
      <polygon class="cls-4" points="187.82 124.41 187.82 159.95 98.86 199.93 98.86 164.39 187.82 124.41"/>
      <polygon class="cls-10" points="108.74 168.84 108.74 177.72 19.78 226.59 19.78 208.82 108.74 168.84"/>
      <path class="cls-1" d="M108.75,159.95v8.89s0,0,0,0l-88.96,39.98v17.78s-.03.01-.03.01c-1.05.47-2.17.69-3.26.69-3.44,0-6.6-2.15-6.6-5.14v-8.89s0-.5,0-.5c.04-5.21,3.63-10.03,9.43-12.63l89.43-40.19Z"/>
      <polygon class="cls-1" points="108.75 159.95 108.75 168.84 108.74 168.84 108.75 159.95"/>
      <polygon class="cls-9" points="177.94 111.08 177.95 297.68 227.38 319.9 227.37 133.29 177.94 111.08"/>
      <polygon class="cls-7" points="355.88 75.53 355.89 262.13 227.37 319.9 227.38 133.29 355.88 75.53"/>
      <polygon class="cls-9" points="346 71.09 227.37 124.4 197.72 111.08 316.34 57.76 306.46 53.32 177.94 111.08 227.38 133.29 355.88 75.53 346 71.09"/>
      <polygon class="cls-5" points="306.46 62.2 336.1 75.53 227.37 124.4 197.72 111.08 306.46 62.2"/>
      <polygon class="cls-7" points="316.34 57.76 316.35 66.64 306.46 62.2 316.34 57.76"/>
    </g>
    <g>
      <path class="cls-2" d="M476.54,255.81c-11.23,0-20.8-2.29-28.7-6.86-7.9-4.57-13.96-11.1-18.17-19.57-4.21-8.47-6.32-18.48-6.32-30.02s2.11-21.52,6.32-29.95c4.21-8.42,10.27-14.92,18.17-19.5,7.9-4.57,17.47-6.86,28.7-6.86,7.8,0,14.76,1.15,20.9,3.43,6.13,2.29,11.49,5.61,16.07,9.98l-5.62,12.95c-4.99-4.26-9.85-7.33-14.58-9.2-4.73-1.87-10.22-2.81-16.46-2.81-11.85,0-20.9,3.64-27.14,10.92-6.24,7.28-9.36,17.62-9.36,31.04s3.12,23.79,9.36,31.12c6.24,7.33,15.29,11,27.14,11,6.24,0,11.72-.94,16.46-2.81,4.73-1.87,9.59-4.99,14.58-9.36l5.62,12.95c-4.58,4.37-9.93,7.72-16.07,10.06-6.14,2.34-13.1,3.51-20.9,3.51Z"/>
      <path class="cls-2" d="M560.77,255.81c-7.8,0-14.56-1.64-20.28-4.91-5.72-3.28-10.14-7.95-13.26-14.04-3.12-6.08-4.68-13.34-4.68-21.76s1.56-15.68,4.68-21.76c3.12-6.08,7.54-10.76,13.26-14.04,5.72-3.28,12.48-4.91,20.28-4.91s14.58,1.64,20.35,4.91c5.77,3.28,10.24,7.95,13.41,14.04,3.17,6.08,4.76,13.34,4.76,21.76s-1.59,15.68-4.76,21.76c-3.17,6.08-7.64,10.76-13.41,14.04-5.77,3.28-12.56,4.91-20.35,4.91ZM560.77,243.49c6.86,0,12.32-2.39,16.38-7.17,4.06-4.78,6.08-11.85,6.08-21.21s-2.03-16.4-6.08-21.13c-4.06-4.73-9.51-7.1-16.38-7.1s-12.17,2.37-16.22,7.1c-4.05,4.73-6.08,11.78-6.08,21.13s2.03,16.43,6.08,21.21c4.06,4.78,9.46,7.17,16.22,7.17Z"/>
      <path class="cls-2" d="M651.39,255.81c-7.8,0-14.56-1.64-20.28-4.91-5.72-3.28-10.14-7.95-13.26-14.04-3.12-6.08-4.68-13.34-4.68-21.76s1.56-15.68,4.68-21.76c3.12-6.08,7.54-10.76,13.26-14.04,5.72-3.28,12.48-4.91,20.28-4.91s14.58,1.64,20.35,4.91c5.77,3.28,10.24,7.95,13.41,14.04,3.17,6.08,4.76,13.34,4.76,21.76s-1.59,15.68-4.76,21.76c-3.17,6.08-7.64,10.76-13.41,14.04-5.77,3.28-12.56,4.91-20.35,4.91ZM651.39,243.49c6.86,0,12.32-2.39,16.38-7.17,4.06-4.78,6.08-11.85,6.08-21.21s-2.03-16.4-6.08-21.13c-4.06-4.73-9.51-7.1-16.38-7.1s-12.17,2.37-16.22,7.1c-4.05,4.73-6.08,11.78-6.08,21.13s2.03,16.43,6.08,21.21c4.06,4.78,9.46,7.17,16.22,7.17Z"/>
      <path class="cls-2" d="M708.32,254.41v-114.8h15.75v70.5h.31l34.31-34.31h19.5l-41.49,41.33.16-7.02,44.76,44.3h-19.96l-37.28-36.03h-.31v36.03h-15.75Z"/>
      <path class="cls-2" d="M792.7,254.41v-109.96h12.48l67.54,88.59h-3.9v-88.59h15.13v109.96h-12.32l-67.38-88.59h3.59v88.59h-15.13Z"/>
      <path class="cls-2" d="M941.96,255.81c-7.8,0-14.56-1.64-20.28-4.91-5.72-3.28-10.14-7.95-13.26-14.04-3.12-6.08-4.68-13.34-4.68-21.76s1.56-15.68,4.68-21.76c3.12-6.08,7.54-10.76,13.26-14.04,5.72-3.28,12.48-4.91,20.28-4.91s14.58,1.64,20.35,4.91c5.77,3.28,10.24,7.95,13.41,14.04,3.17,6.08,4.76,13.34,4.76,21.76s-1.59,15.68-4.76,21.76c-3.17,6.08-7.64,10.76-13.41,14.04-5.77,3.28-12.56,4.91-20.35,4.91ZM941.96,243.49c6.86,0,12.32-2.39,16.38-7.17,4.06-4.78,6.08-11.85,6.08-21.21s-2.03-16.4-6.08-21.13c-4.06-4.73-9.51-7.1-16.38-7.1s-12.17,2.37-16.22,7.1c-4.05,4.73-6.08,11.78-6.08,21.13s2.03,16.43,6.08,21.21c4.06,4.78,9.46,7.17,16.22,7.17Z"/>
      <path class="cls-2" d="M1032.58,255.81c-7.8,0-14.56-1.64-20.28-4.91-5.72-3.28-10.14-7.95-13.26-14.04-3.12-6.08-4.68-13.34-4.68-21.76s1.56-15.68,4.68-21.76c3.12-6.08,7.54-10.76,13.26-14.04,5.72-3.28,12.48-4.91,20.28-4.91s14.58,1.64,20.35,4.91c5.77,3.28,10.24,7.95,13.41,14.04,3.17,6.08,4.76,13.34,4.76,21.76s-1.59,15.68-4.76,21.76c-3.17,6.08-7.64,10.76-13.41,14.04-5.77,3.28-12.56,4.91-20.35,4.91ZM1032.58,243.49c6.86,0,12.32-2.39,16.38-7.17,4.06-4.78,6.08-11.85,6.08-21.21s-2.03-16.4-6.08-21.13c-4.06-4.73-9.51-7.1-16.38-7.1s-12.17,2.37-16.22,7.1c-4.05,4.73-6.08,11.78-6.08,21.13s2.03,16.43,6.08,21.21c4.06,4.78,9.46,7.17,16.22,7.17Z"/>
      <path class="cls-2" d="M1089.51,254.41v-114.8h15.75v70.5h.31l34.31-34.31h19.5l-41.49,41.33.16-7.02,44.76,44.3h-19.96l-37.28-36.03h-.31v36.03h-15.75Z"/>
    </g>
  </g>
</svg>