<?xml version="1.0" encoding="UTF-8"?>
<svg id="Layer_2" data-name="Layer 2" xmlns="http://www.w3.org/2000/svg" xmlns:xlink="http://www.w3.org/1999/xlink" viewBox="0 0 1704.11 940.12">
  <defs>
    <style>
      .cls-1 {
        fill: #6b911e;
      }

      .cls-1, .cls-2, .cls-3, .cls-4, .cls-5, .cls-6, .cls-7, .cls-8, .cls-9, .cls-10, .cls-11, .cls-12, .cls-13, .cls-14, .cls-15, .cls-16, .cls-17, .cls-18, .cls-19, .cls-20, .cls-21, .cls-22, .cls-23, .cls-24, .cls-25, .cls-26, .cls-27, .cls-28 {
        stroke-width: 0px;
      }

      .cls-2 {
        fill: #5e605c;
      }

      .cls-3 {
        fill: #bbdc73;
      }

      .cls-4 {
        fill: url(#linear-gradient);
      }

      .cls-5 {
        fill: #f14b4e;
      }

      .cls-6 {
        fill: #faf6ed;
      }

      .cls-7 {
        fill: #90ba35;
      }

      .cls-8 {
        fill: #c81a29;
      }

      .cls-9 {
        fill: #4a6b10;
      }

      .cls-10 {
        fill: #ce890f;
      }

      .cls-11 {
        fill: #f9d467;
      }

      .cls-12 {
        fill: #79975a;
      }

      .cls-13 {
        fill: #e3323b;
      }

      .cls-14 {
        fill: none;
      }

      .cls-15 {
        fill: #4b5f40;
      }

      .cls-16 {
        fill: #de7e77;
      }

      .cls-17 {
        fill: #61833f;
      }

      .cls-18 {
        fill: #567910;
      }

      .cls-19 {
        fill: #efe9d2;
      }

      .cls-20 {
        fill: #453c34;
      }

      .cls-21 {
        fill: #567239;
      }

      .cls-22 {
        fill: #3e2d21;
      }

      .cls-23 {
        fill: #edf5db;
      }

      .cls-24 {
        fill: #dfa01d;
      }

      .cls-25 {
        fill: #5c6550;
      }

      .cls-26 {
        fill: #cde09c;
      }

      .cls-27 {
        fill: #515247;
      }

      .cls-28 {
        fill: #53413b;
      }
    </style>
    <linearGradient id="linear-gradient" x1="826.21" y1="587.13" x2="1275.68" y2="815.66" gradientUnits="userSpaceOnUse">
      <stop offset="0" stop-color="#e53538"/>
      <stop offset="1" stop-color="#ba1526"/>
    </linearGradient>
  </defs>
  <g id="Layer_1-2" data-name="Layer 1">
    <g>
      <g>
        <g>
          <path class="cls-25" d="M663.69,527.2c-22.47,6.67-43.09,12.2-66.37,15.49-4.78-9.68-28.3,5.25-19.91-8.85,51.84-15.83,105.72-35.47,153.76-61.95h8.85c13.24,13.04,29.26,22.08,45.35,30.97-82.15-.5-100.15,17.94-121.68,24.34Z"/>
          <g>
            <path class="cls-21" d="M365.02,732.95c-12.26-2.53-28.39-12.66-35.4-23.23-33.39-50.35,38.68-37.06,61.95-18.8,31.73,24.9,19.03,51.44-26.55,42.03Z"/>
            <path class="cls-17" d="M840.67,659.94c-2.59,13.75-32.12,14.37-42.03,13.27-19.88-2.19-45.62-20.26-42.03-38.72,5.74-29.51,89.28-2.26,84.07,25.44Z"/>
            <g>
              <path class="cls-12" d="M572.98,716.36c8.78,34.55-116.71,3.47-71.9-21.02,22.08-12.07,68.3,6.86,71.9,21.02Z"/>
              <path class="cls-17" d="M528.74,779.41c-17.08-3.2-31.36,5.11-44.25,0-27.21-49.95,26.36-45.2,44.25,0Z"/>
              <path class="cls-21" d="M484.49,779.41c12.89,5.11,27.17-3.2,44.25,0,23.94,60.49-27.87,30.06-44.25,0Z"/>
              <path class="cls-15" d="M705.72,720.78c-.12,4.79-1.07,3.69-4.42,0-1.9-2.1-19.34-29.07-19.91-30.97-12.72-42.68,24.93,7.05,24.34,30.97Z"/>
            </g>
          </g>
          <path class="cls-2" d="M1311.09,526.35c-1.58-.44-3.15-.89-4.73-1.35-.33-.65-.58-1.17-.8-1.62.23.44.49.96.81,1.61,1.57.46,3.15.91,4.72,1.36Z"/>
          <path class="cls-2" d="M1320.61,528.91c-3.18-.82-6.35-1.67-9.51-2.56,3.16.88,6.33,1.74,9.51,2.56Z"/>
          <path class="cls-2" d="M1334.98,532.4c-3.21-.73-6.4-1.48-9.59-2.28,3.19.79,6.38,1.55,9.59,2.28Z"/>
          <path class="cls-2" d="M1378.66,540.45c-3.26-.47-6.52-.96-9.77-1.49,3.25.52,6.51,1.02,9.77,1.49Z"/>
          <path class="cls-2" d="M1388.46,541.78c-3.27-.41-6.54-.86-9.8-1.33,3.27.47,6.53.91,9.8,1.33Z"/>
          <path class="cls-2" d="M1413.05,544.43c-3.29-.29-6.57-.6-9.85-.95,3.28.34,6.56.66,9.85.95Z"/>
          <path class="cls-2" d="M1462.34,547.11h0s-.01.01-.01.01c-1.64-.04-3.28-.08-4.92-.13,1.65.04,3.29.08,4.93.12Z"/>
          <g>
            <path class="cls-9" d="M1006.6,103.54c4.36,9.36-28.33,66.41-51.99,58.63-30.35-9.99,40.91-82.4,51.99-58.63Z"/>
            <path class="cls-9" d="M918.1,270.57c-11.56-12.26-30.2-37.43-33.18-53.1-9.41-49.36,53.56-3.33,45.35,55.31-5.58,1.33-8.45-2.6-12.17-2.21Z"/>
            <g>
              <path class="cls-18" d="M809.7,101.33c1.55,22.09-78.11,16.98-81.86,0-6.88-31.18,80.37-21.24,81.86,0Z"/>
              <g>
                <path class="cls-17" d="M747.76,177.66c-57.17,13.13-36.23,33.59,8.85,11.06,2.08,21.97-35.88,60.02-56.41,55.31-32.7-7.5,15.83-81.25,47.56-66.37Z"/>
                <path class="cls-12" d="M747.76,177.66c3.73,1.75,8.51,7.5,8.85,11.06-45.08,22.53-66.02,2.07-8.85-11.06Z"/>
              </g>
            </g>
          </g>
        </g>
        <g>
          <path class="cls-9" d="M577.41,533.84c-8.39,14.1,15.13-.83,19.91,8.85-10.87,1.53-22.71,1.07-33.18,4.42,0-3.31-7.13-35.33-8.85-42.03q76.33-27.65,152.65-55.31c4.81,3.79,27.7,10.99,18.8,17.7-12.7.91-20.08,8.32-30.97,13.27-23.99,10.9-49.02,19.75-73.01,30.97-.22.1-2.07-3.33-4.42-2.21-13.42,6.37-25.74,19.53-40.93,24.34Z"/>
          <path class="cls-7" d="M555.28,505.08c-.1-.39-3.09-1.13-4.42-6.64h2.21c32.07-13.28,64.14-27.31,97.34-37.61,17.83-5.53,36.76-10.67,55.31-13.27,2.1,1.59,2.09,2.12,2.21,2.21q-76.33,27.65-152.65,55.31Z"/>
        </g>
        <g>
          <path class="cls-5" d="M1241.1,27.22c-108.55,18.29-142.37,193.92-288.71,283.18-62.81,38.31-135.25,61.46-202.43,90.71-3.91-2.96-21.3-10.35-24.34-15.49,45.83-25.62,100.48-34.41,149.33-55.31,199.74-85.46,213.2-269.35,341.8-314.15,2.15,10.84,29.7-17.28,24.34,11.06Z"/>
          <path class="cls-13" d="M1241.1,27.22c5.36-28.34-22.19-.22-24.34-11.06,58.12-20.25,129.61-13.12,163.71,44.25-7.23,21.34-13.03-19.43-69.69-35.4-14.18,5.98-24.01-.41-39.82,0-2.77.07-19.77,6.11-24.34,6.64-.81.09-3.33-4.8-5.53-4.42Z"/>
          <g>
            <path class="cls-8" d="M1232.25,279.42c-62.9,7.36-178.54,2.24-231.19,28.76-8.26,4.16-17.75,14.89-18.8,15.49-49.54,28.1-97.1,58.6-148.23,84.07-5.07,2.53-11.54,4.84-15.49,8.85-5.09.79-10.54,2.88-15.49,4.42-4.54,1.42-12.07,3.89-15.49,6.64-12.7-8.93-25.17-17.12-37.61-26.55,67.18-29.24,139.62-52.39,202.43-90.71,146.33-89.26,180.16-264.89,288.71-283.18,2.2-.37,4.72,4.52,5.53,4.42,4.57-.52,21.57-6.56,24.34-6.64,15.82-.41,25.65,5.98,39.82,0,56.66,15.97,62.46,56.74,69.69,35.4,45.62,76.74,8.27,200.72-148.23,219.02Z"/>
            <path class="cls-8" d="M1325.17,215.26c-47.51,1.81-59.85-24.57-81.86-57.52-18.14-27.16-33.51-57.41-50.88-85.17,116.87-108.38,225.86,31.92,132.74,142.69Z"/>
            <path class="cls-5" d="M1243.32,157.74c22.01,32.95,34.34,59.33,81.86,57.52-70.04,83.31-223.04,54.85-201.32,3.32,7.99-18.95,96.44-53,119.47-60.84Z"/>
          </g>
        </g>
        <g>
          <path class="cls-8" d="M617.23,279.42c-1.65,7.52-6.51,8.25-11.06,13.27-13.19,14.54-31.79,26.64-46.46,39.82-27.22-21.1-79.3-51.61-126.1-88.49-35.7-28.13-160.64-134.26-174.77-169.24-3.83-9.48-7.17-32.79-6.64-43.14,2.8-.81,3.87-3.3,6.64-4.42-2.52,21.34,2.78,40.1,13.27,58.63,6.65,11.74,69.46,81.71,73.01,64.16.47-2.31-4.9-11.01-4.42-13.27.18-.86,9.1-14.18,9.96-14.38,5.01-1.15,44.17,57.4,53.1,61.94,16.14,8.22,18.85-.36,19.91,0,1.76.6,19.52,15.2,29.87,22.12,16.93,11.33,125.64,94.94,133.85,95.13q14.93-13.27,29.87-26.55c0,1.43.28,3.16,0,4.42Z"/>
          <path class="cls-13" d="M617.23,275q-14.93,13.27-29.87,26.55c-8.21-.19-116.91-83.8-133.85-95.13,25.23-35.91,18.6-70.36,19.91-74.11.6-1.73,2.96-1.1,4.42-1.11,32.02,33.35,73.11,63.27,105.09,97.34l3.32-3.32c-5.53-3.99-4.15-7.12-4.42-7.74,12.92,10.97,35.41,41.4,35.4,57.52Z"/>
          <path class="cls-5" d="M258.83,27.22c-2.76,1.13-3.84,3.61-6.64,4.42.21-4.06,3.55-8.28,2.21-15.49,65.06-40.65,103.61,3.96,150.44,39.82-11.28,4.86-41.07-20.21-58.63-26.55-27.23-9.84-59.85-13.43-87.39-2.21Z"/>
          <path class="cls-5" d="M477.85,131.2c-6.8-7.09-31.64-30.61-11.06-24.34,22.9,19.83,105.01,88.08,115.04,110.62.28.62-1.11,3.75,4.42,7.74l-3.32,3.32c-31.97-34.07-73.06-63.99-105.09-97.34Z"/>
          <g>
            <path class="cls-8" d="M466.79,106.86c-20.55-17.8-40.33-34.33-61.94-50.88-11.29,4.86-41.07-20.21-58.63-26.55-27.23-9.84-59.85-13.42-87.39-2.21-2.52,21.33,2.78,40.1,13.28,58.63,6.65,11.74,69.45,81.71,73,64.15.47-2.3-4.9-11.01-4.42-13.27.18-.86,9.1-14.19,9.95-14.38,5.01-1.15,44.17,57.4,53.1,61.94,16.14,8.22,18.85-.36,19.91,0,1.76.6,19.52,15.2,29.87,22.13,25.23-35.92,18.6-70.36,19.91-74.12.6-1.72,2.96-1.1,4.42-1.1-6.8-7.09-31.64-30.61-11.06-24.34ZM342.9,89.16c29.95-11.53,64.82,27.73,42.03,53.1-12.87-13.31-38.1-36.25-42.03-53.1Z"/>
            <path class="cls-20" d="M439.14,182.08c-23.29,3.83-39.41-24.52-54.21-39.82,22.79-25.37-12.08-64.63-42.03-53.1-1.61-6.9-7.47-14.59,3.32-19.91,37.11-18.28,112.25,62.16,113.93,69.69,3.45,15.44-3.35,40.23-21.01,43.14Z"/>
          </g>
        </g>
        <g>
          <g>
            <path class="cls-8" d="M564.13,547.11c0,3.32,0,6.64,0,9.96-2.13,4.97-5.17,6.17-6.64,7.74-84.2,26.04-163.38,63.43-247.78,88.49-14.66,4.35-44.34,17.65-58.63,19.91-42.7,6.76-107.39-2-102.87-57.52,1.53-.17,3.59.33,4.42,0,9.46,61.11,35.46,34.75,43.14,35.4,4.62,8.01,77.6,7.34,81.86,6.64,13.05-2.15,181.36-64.15,207.96-75.22,7.29-14.26,55.29-28.07,75.22-28.76,6.89-7.79-20.21-9.15-17.7-46.46-61.33,8.62-122.17,25.75-183.62,33.18-2.65.32-10.74.68-11.06-4.42,3.45,13.63-15.31-8.36-17.7-8.85-8.68-1.79-28.08,12.1-36.5,6.64,55.99-17.48,112.75-32.93,170.35-44.25,27.8-5.46,55.74-13.99,85.17-13.27,2.85,2.03.05,17.78,1.11,22.12,1.34,5.5,4.33,6.25,4.42,6.64,1.72,6.7,8.84,38.72,8.85,42.03Z"/>
            <g>
              <path class="cls-8" d="M348.43,536.06c.12.47.22.89.28,1.29-.15-.38-.25-.81-.28-1.29Z"/>
              <path class="cls-8" d="M542.99,509.73c.02-.8.06-1.61.12-2.44-.37.05-.73.1-1.1.16-1.67.23-3.34.48-5.01.73-2.81.42-5.62.86-8.43,1.31-1.4.23-2.81.46-4.22.69-1.4.23-2.8.47-4.21.71-1.91.32-3.83.66-5.74,1-1.91.33-3.82.68-5.74,1.03-1.91.35-3.82.7-5.73,1.06-1.91.36-3.83.72-5.74,1.09-1.91.36-3.82.74-5.73,1.11-1.82.36-3.65.72-5.47,1.08-13.46,2.67-26.91,5.49-40.37,8.25-2.71.55-5.41,1.1-8.12,1.65-2.3.47-4.59.93-6.89,1.38-.31.07-.61.13-.92.19-.1.02-.21.04-.31.06-4.14.82-8.28,1.64-12.42,2.43-2.39.46-4.78.91-7.17,1.35-2.39.45-4.78.88-7.18,1.31-2.39.43-4.78.85-7.17,1.26-1.7.29-3.4.58-5.11.86-.12.02-.25.04-.38.07-.21.04-.43.07-.64.1-.78.13-1.55.26-2.32.38-.77.12-1.54.24-2.32.37-3.6.57-7.19,1.12-10.79,1.64-1.2.17-2.4.34-3.59.51-1.35.19-2.71.37-4.06.55-1.05.14-2.09.27-3.14.4-1.2.16-2.4.31-3.6.45-.25.03-.54.06-.88.09-.11.01-.22.02-.33.03-.12,0-.25,0-.37.02-.18.01-.36.02-.54.02-.21,0-.43.01-.65.01-.13,0-.27,0-.41-.01-.14,0-.28,0-.42-.01-.35-.01-.72-.04-1.08-.08-.13-.01-.27-.02-.39-.04-.11-.01-.22-.02-.33-.03-.11-.02-.22-.03-.33-.05-.03-.01-.06-.01-.08-.01-.18-.03-.36-.07-.53-.1l-.15-.03c-.14-.03-.29-.07-.43-.11-.16-.04-.32-.08-.47-.13-.22-.07-.44-.15-.65-.23-.15-.06-.31-.13-.45-.2-.42-.19-.78-.43-1.1-.69-.11-.07-.21-.16-.3-.27-.04-.03-.07-.06-.1-.09-.06-.06-.11-.11-.15-.17-.03-.03-.06-.07-.09-.1-.03-.04-.06-.08-.09-.12t-.01-.02c-.07-.08-.12-.17-.17-.25-.05-.07-.09-.14-.12-.21-.03-.05-.05-.1-.07-.15-.04-.06-.06-.13-.09-.19.01.09.03.16.04.25.02.11.03.22.04.33.03.2.05.39.05.57.02.44-.01.79-.08,1.08-.02.1-.05.19-.09.27-.07.18-.18.32-.3.42-.05.04-.1.08-.17.11-.02.01-.04.02-.06.03-.06.03-.12.05-.19.06-.03.01-.05.02-.08.02-.38.06-.87-.05-1.44-.31-.16-.07-.32-.15-.48-.24-.17-.08-.34-.17-.52-.29-.18-.1-.36-.22-.55-.34-.38-.24-.77-.52-1.17-.83-.2-.15-.41-.31-.62-.48-.62-.48-1.28-1.03-1.94-1.61-.44-.37-.89-.77-1.33-1.18-.23-.19-.45-.4-.67-.6-.44-.4-.88-.81-1.32-1.23-.22-.19-.44-.4-.66-.61-.43-.4-.85-.8-1.26-1.19-.62-.58-1.21-1.14-1.75-1.65-.27-.25-.53-.49-.77-.71-.26-.23-.51-.45-.74-.65-.75-.65-1.34-1.12-1.72-1.3-.07-.03-.14-.06-.19-.07-8.69-1.78-28.08,12.11-36.51,6.64-19.64,6.13-46.71,13.4-68.82,21.1-7.23,2.51-13.93,5.08-19.67,7.66,3.59,2.29,11.43-.3,19.67-3.51,14.5-5.66,30.3-13.28,26.79.19-7.47,2.72-16.81,7.41-26.79,12.99-28.99,16.19-63.36,39.77-72.76,43.42.45,2.9.94,5.6,1.45,8.13.23,1.13.48,2.23.72,3.29.09.36.17.7.25,1.05.4,1.64.81,3.19,1.24,4.65.22.73.43,1.44.65,2.13.34,1.03.67,2.02,1.02,2.96.17.47.35.93.53,1.38.17.45.35.88.53,1.31h.01c.09.22.18.43.27.64.09.2.18.41.27.61.06.13.12.27.18.4.12.27.25.53.37.79.19.38.38.76.57,1.12.19.36.38.72.57,1.06.38.69.77,1.34,1.17,1.95.26.41.53.8.8,1.17.13.19.26.37.4.55.27.36.54.7.81,1.03.28.33.55.64.83.94.23.25.47.49.7.72.19.18.37.36.56.52.34.31.68.6,1.02.87.19.14.38.29.57.42.33.23.66.45.99.65.33.2.66.39,1,.56.09.05.19.1.28.14.06.03.12.06.18.09.16.07.32.14.48.21.22.09.43.18.65.26.04.01.08.03.12.04.17.07.34.13.5.17t.02.01c.08.03.16.05.24.07.07.02.13.04.19.06.02.01.04.01.06.02.12.03.24.06.36.09.27.07.54.13.81.18.19.04.39.07.58.09.1.02.2.04.3.05.05.01.09.01.14.01.15.03.31.04.46.05.12.02.24.02.37.03.12.01.24.01.37.02.26.01.52.02.77.02h.03c.31,0,.62-.01.93-.03.18-.01.36-.02.53-.04.21-.01.41-.03.61-.06.24-.02.47-.06.71-.09.23-.03.47-.07.7-.12.18-.03.37-.06.55-.1.74-.15,1.47-.34,2.19-.55.23-.06.45-.13.67-.2.22-.07.44-.14.66-.21.66-.22,1.3-.45,1.93-.68.42-.16.83-.32,1.23-.48.6-.24,1.18-.48,1.75-.71.19-.08.37-.16.56-.23.97-.39,1.87-.75,2.69-1.03.17-.06.33-.11.49-.16.18-.06.35-.11.52-.15.13-.04.26-.07.39-.1.08-.02.16-.04.23-.05.13-.03.26-.05.39-.07.11-.02.22-.03.32-.04.14,0,.27-.02.4-.02.1,0,.2,0,.29.01.05.09.11.18.18.27.06.07.13.15.2.23.01,0,.02.02.03.03.09.08.18.17.28.25.12.1.24.19.38.28.1.07.21.14.33.21.13.08.27.16.42.23.15.08.31.16.47.23.21.11.43.2.66.29.13.05.26.1.4.15.19.08.4.15.61.22.41.14.85.27,1.3.4.24.07.47.13.72.19.24.07.49.13.75.19.13.04.28.07.41.1.28.07.57.13.87.19s.6.12.91.18c.32.07.64.13.97.19.65.12,1.31.24,2.01.35h.03c.48.08.98.16,1.49.23.48.07.97.14,1.47.21.03,0,.05,0,.08,0,.88.12,1.8.22,2.74.33.8.09,1.64.18,2.49.26.43.05.87.09,1.31.14.2.02.4.04.6.06.19.01.38.03.58.05.48.04.96.08,1.44.12.66.06,1.32.1,1.98.16.06,0,.13,0,.19.02.28.02.55.04.82.06l.42.03c.23.02.46.03.7.04.45.04.92.07,1.39.1.13.02.28.02.41.03h.09c.39.03.79.05,1.18.08h.01c.4.02.8.05,1.2.07.68.04,1.36.08,2.05.11.04.01.09.01.13.01.15.01.3.01.45.02.59.03,1.18.06,1.77.08.31.02.62.04.93.05s.62.03.92.04c.09,0,.18.01.28.02.16,0,.32.01.48.02.27.01.55.02.82.03h.11c.44,0,.88.03,1.31.04.1.01.18.02.27.02s.18,0,.27,0c.56.03,1.12.05,1.68.06.56.02,1.12.03,1.69.05.74.02,1.49.05,2.23.06.18.01.35.02.53.02h.09c.38.01.76.02,1.13.03.08,0,.15.01.23.01.13.01.26.01.39.01h.42c.43,0,.84,0,1.26.03h.13c.59.01,1.17.02,1.75.03.4,0,.8.02,1.18.02.09.01.18.01.26.01h.18c.49.01.97.01,1.45.02,1.46.02,2.9.04,4.29.04.15.01.29.01.43,0,.66,0,1.31.01,1.95.01,1.92.01,3.75.01,5.44-.01.12.01.24.01.35,0,.32,0,.64,0,.96-.01.31,0,.62,0,.92,0,.48-.01.95-.01,1.4-.02.45,0,.89-.01,1.32-.02.43,0,.84-.01,1.24-.02h.13c.35,0,.69,0,1.01-.03.19,0,.37,0,.55-.01h.09c.32-.01.62-.02.91-.03h.08c.29-.01.57-.02.83-.03.16,0,.32-.01.47-.02.26,0,.49-.02.71-.03.13,0,.25-.01.36-.02.1-.01.2-.01.3-.02.29-.01.53-.03.73-.05h.01c.2-.01.36-.03.47-.05.09-.01.19-.03.3-.06.11-.02.23-.05.36-.08.09,0,.18-.04.28-.06.09-.02.19-.04.29-.07.14-.04.29-.07.44-.11.06-.01.13-.03.2-.05.23-.07.47-.13.73-.2.76-.21,1.65-.46,2.65-.77.49-.15,1.01-.3,1.55-.48.53-.16,1.09-.33,1.67-.52.33-.11.66-.21,1-.32,1.35-.43,2.83-.91,4.42-1.44.79-.26,1.61-.53,2.46-.81.43-.14.86-.29,1.3-.44.87-.29,1.77-.59,2.7-.91.92-.31,1.87-.64,2.85-.97.97-.34,1.97-.68,2.99-1.02.51-.18,1.03-.36,1.55-.54,1.04-.36,2.11-.73,3.19-1.1,1.23-.43,2.49-.87,3.77-1.31.98-.35,1.97-.7,2.99-1.05,3.07-1.08,6.27-2.2,9.57-3.37,1.08-.39,2.19-.78,3.3-1.17,4.49-1.59,9.16-3.26,13.96-4.98,2.74-.99,5.52-1.99,8.34-3,1.41-.51,2.82-1.02,4.25-1.54.71-.25,1.43-.51,2.14-.77,8.59-3.1,17.43-6.32,26.26-9.55,2.21-.8,4.42-1.61,6.62-2.42,1.47-.55,2.94-1.09,4.41-1.62,5.27-1.94,10.51-3.87,15.65-5.77,3.43-1.27,6.83-2.53,10.16-3.76.82-.3,1.64-.61,2.45-.91.93-.35,1.87-.7,2.79-1.04,1.68-.62,3.34-1.24,4.98-1.85,1.08-.41,2.15-.81,3.21-1.2.45-.16.9-.33,1.34-.5.88-.33,1.76-.66,2.64-.99,1.31-.49,2.6-.97,3.88-1.45,1.44-.54,2.87-1.07,4.27-1.6.61-.23,1.21-.46,1.81-.68.6-.23,1.2-.45,1.79-.67,1.77-.67,3.5-1.33,5.18-1.96.56-.21,1.12-.42,1.67-.63,1.04-.4,2.07-.79,3.08-1.17.05-.02.11-.04.17-.06.53-.21,1.06-.41,1.58-.6,1.56-.6,3.07-1.17,4.52-1.72.97-.38,1.92-.74,2.84-1.09.93-.35,1.82-.7,2.69-1.04.12-.04.23-.09.35-.13.75-.29,1.48-.57,2.19-.85.03-.01.07-.03.1-.04.56-.21,1.1-.42,1.63-.63.22-.08.43-.17.64-.25.34-.13.67-.26,1-.39.41-.16.81-.32,1.2-.47.35-.14.69-.27,1.03-.4.22-.09.43-.18.65-.26.21-.09.42-.17.62-.25,1.22-.48,2.32-.92,3.3-1.32.37-.14.72-.29,1.06-.43.33-.13.65-.27.95-.39,7.29-14.26,55.26-28.07,75.21-28.76h.01s.05-.05.06-.08c.02-.02.04-.05.06-.08.14-.16.27-.33.38-.49.15-.21.26-.41.35-.62,2.98-6.63-19.81-9.84-18.68-42.75ZM303.08,615.7q-19.91,5.53-39.82,11.06c-10.2.24-14.45,2.28-19.91-6.64,28.18-22.71,56.31-9.48,66.37-8.85-.21,2.27-4.48,3.3-6.64,4.43Z"/>
              <g>
                <path class="cls-13" d="M148.22,615.69c.35-4.37-.25-8.88,0-13.26,20.96-19.82,30.27-27.55,57.52-39.83,3.59,2.29,11.43-.29,19.67-3.51,14.49-5.66,30.3-13.28,26.79.19-7.47,2.71-16.81,7.41-26.79,12.98-28.99,16.2-63.36,39.77-72.77,43.43-.85.34-2.9-.16-4.43,0Z"/>
                <g>
                  <path class="cls-20" d="M322.99,604.63c-32.38-17.87-53.07-20.43-81.86,4.42-.02-57.21,103.24-53.14,81.86-4.42Z"/>
                  <path class="cls-27" d="M309.72,611.27c-10.06-.63-38.18-13.86-66.37,8.85-2.95-4.82-2.21-5.94-2.21-11.06,28.79-24.85,49.48-22.3,81.86-4.42-5.56,12.66-12.39,6.69-13.27,6.64Z"/>
                  <path class="cls-28" d="M263.26,626.76q19.91-5.53,39.82-11.06c-12.21,6.35-25.97,10.74-39.82,11.06Z"/>
                </g>
              </g>
            </g>
          </g>
          <g>
            <path class="cls-11" d="M648.2,416.59H210.16q-8.85,0-17.69,0c.01-12.54-.01-25.07,0-37.62,1.56-.04-2.82-6.73,28.75-4.43,1.39,0,2.8.01,4.2.01,50.97.22,101.92-.34,152.88-.01,76.66.51,153.4,5.57,230.08,2.22,14.3,12.85,43,27.96,39.82,39.83Z"/>
            <path class="cls-11" d="M1037.57,423.22c-70.37.34-141.47-3.39-211.28,4.42-9.96-14.1-19.76-.3-23.23-6.64,4.94-1.55,10.4-3.64,15.49-4.42,27.8-4.3,57.14-2.8,85.17-6.64,36.27-4.96,111.47-28.03,136.06-11.06l-2.21,24.34Z"/>
            <path class="cls-10" d="M1035.36,463.04c-61.03,4.86-127.66-7.51-188.05,2.21-1.16.19-3.83-4.41-8.85,2.21-.57.33-1.76-.35-2.21,0-1.06-4.95-15.05-16.31-19.91-19.91q108.96-2.21,217.91-4.42.55,9.96,1.11,19.91Z"/>
            <path class="cls-10" d="M643.78,454.2c-4.22-.94-72.17,3.72-86.28,4.42-71.67,3.56-142.87,6.56-214.6,8.85-50.1,1.6-100.32,3.4-150.44,4.42-.21-18.44-.03-36.87,0-55.31q8.85,0,17.7,0c-10.69,13.73,66.62,8,89.6,4.42,114.75,9.19,230.97,3.17,346.23,8.85.09,5.65,5.75,25.22-2.21,24.34Z"/>
            <path class="cls-24" d="M645.99,429.86c-115.26-5.68-231.48.34-346.23-8.85-22.98,3.57-100.29,9.3-89.6-4.42q219.02,0,438.04,0c1.35,8.78-2.23,12.38-2.21,13.27Z"/>
            <g>
              <path class="cls-8" d="M192.46,471.9c-64.51,1.31-166.78,22.04-192.46-55.31,3.02-4.32,7.24-11.6,8.84-13.27,35.61-3.89,72.56-7.82,108.41-6.65-15.13,9.48-19.12,15.64-19.91,30.98h0c-.08,1.49-.65,2.2-1.15,2.95-.47.72-.86,1.47-.65,2.97.02.15.05.31.08.47.03.15.06.3.1.45.1.41.24.86.42,1.37.28.8.67,1.74,1.19,2.85h.01c.33.72.69,1.41,1.1,2.08.39.67.82,1.32,1.28,1.95.57.79,1.19,1.55,1.86,2.28.28.31.56.6.85.89.14.15.28.29.42.42.28.28.58.56.88.83,1.8,1.61,3.81,3.05,5.99,4.3,2.17,1.24,4.49,2.28,6.9,3.12.4.14.81.28,1.21.4.73.23,1.47.43,2.21.62.16.05.32.09.49.13,5,1.21,10.21,1.53,15.09.82h.01c1.43-.21,2.83-.51,4.2-.9h.01c1.36-.4,2.67-.88,3.93-1.46h.01c.4-.18.77-.38,1.11-.58h.01c.69-.43,1.28-.9,1.79-1.4,3.32-3.28,3.19-8.02,3.74-9.07h0c5.28-10.09,8.82-13.42,6.63-26.55h35.4c-.03,18.43-.2,36.87,0,55.31Z"/>
              <path class="cls-5" d="M117.24,396.67c-35.84-1.17-72.8,2.76-108.4,6.65,32.97-34.74,43.69-23.06,132.74-26.55-10.28,18.95,24.66,11.14,28.75,39.83h-13.28c-4.61-27.74-37.37-19.83-39.82-19.92Z"/>
              <path class="cls-5" d="M192.46,416.59q-11.06,0-22.12,0c-4.09-28.7-39.04-20.88-28.75-39.83,16.93-.66,34.51,2.63,50.88,2.22-.01,12.54.01,25.07,0,37.62Z"/>
              <g>
                <path class="cls-22" d="M157.07,416.59c2.18,13.13-1.35,16.47-6.64,26.55-24.29-10.23-19.59-14.98-21.02-15.49-4.44-1.58-24.52.38-32.08,0,.79-15.34,4.79-21.5,19.91-30.97,2.46.08,35.21-7.82,39.82,19.91Z"/>
                <path class="cls-27" d="M150.43,443.14c-.55,1.05-.42,5.79-3.74,9.07-.51.51-1.1.98-1.79,1.4h-.01c-.34.22-.71.41-1.1.59h-.01s-.01-.01-.01-.01q-23.21-7.74-46.43-15.47h-.01c-.52-1.12-.91-2.06-1.19-2.86-.18-.51-.32-.96-.42-1.37-.04-.15-.07-.3-.1-.45-.03-.16-.06-.32-.08-.47-.21-1.5.18-2.25.65-2.97.49-.74,1.06-1.46,1.14-2.95h.01c7.57.38,27.63-1.58,32.07,0,1.43.51-3.27,5.26,21.02,15.49Z"/>
                <path class="cls-14" d="M143.77,454.19h.02"/>
              </g>
            </g>
            <path class="cls-24" d="M1039.78,458.62q-2.21,2.21-4.42,4.42-.55-9.96-1.11-19.91-108.96,2.21-217.91,4.42c-9.18-6.79-19.33-13.28-28.76-19.91,3.42-2.75,10.94-5.22,15.49-6.64,3.47,6.34,13.27-7.46,23.23,6.64,69.8-7.81,140.91-4.09,211.28-4.42.74,0,1.47,0,2.21,0q0,17.7,0,35.4Z"/>
            <g>
              <path class="cls-19" d="M1411.45,463.05c.65,22.79-43.89,14.56-26.55-8.85,5.74-7.74,26.18-4.28,26.55,8.85Z"/>
              <path class="cls-9" d="M1704.1,407.34c-.02,1.5-.06,3-.12,4.5-.06,1.46-.13,2.93-.21,4.4-.08,1.29-.17,2.58-.27,3.88-.08.94-.16,1.88-.24,2.82-.03.41-.07.82-.11,1.23-.53,5.53-1.24,11.03-2.04,16.43-.02.11-.03.21-.05.32-1.27,8.48-2.79,16.69-4.22,24.34-8.85-.06-17.69.08-26.54,0,2.55-.64,4.51-1.13,6.15-1.54.5-.13.98-.24,1.43-.36.22-.05.44-.11.66-.16.24-.06.47-.12.7-.18,1.43-.35,2.69-.67,4.11-1.02.2-.05.41-.1.62-.16,1.27-.32,2.7-.67,4.48-1.12.36-.09.74-.19,1.13-.28.14-.04.29-.07.44-.11.37-.1.75-.19,1.15-.29.08-.02.16-.04.24-.06.32-.09.66-.17,1-.26-1.08-.82-2.15-1.64-3.21-2.46-2.03-1.57-4.02-3.11-5.96-4.63-.09-.06-.17-.13-.26-.2-1.39-1.1-2.76-2.17-4.11-3.24-.71-.57-1.42-1.13-2.13-1.69-1.84-1.45-3.65-2.9-5.42-4.32-2.53-2.04-4.99-4.02-7.39-5.96-1.14-.92-2.26-1.83-3.37-2.73-.09-.07-.17-.14-.26-.22h-.01c-.17-.13-.33-.27-.5-.41h-.01c-4.05-3.28-7.94-6.43-11.71-9.46-.8-.65-1.6-1.29-2.4-1.91-.92-.73-1.83-1.45-2.74-2.17-.99-.79-1.99-1.57-2.97-2.33-1.17-.92-2.34-1.82-3.51-2.71-2.14-1.62-4.25-3.2-6.35-4.74-.22-.15-.43-.31-.64-.46-.13-.1-.25-.19-.38-.28-6.22-4.5-12.37-8.61-18.74-12.32-.44-.26-.89-.52-1.33-.77-.97-.56-1.96-1.11-2.95-1.66-.54-.3-1.08-.59-1.63-.88-1.27-.67-2.56-1.33-3.86-1.98-.76-.39-1.52-.76-2.28-1.12-.15-.07-.3-.14-.45-.21-.03-.02-.06-.03-.09-.04-.28-.14-.57-.27-.86-.41-.41-.19-.82-.38-1.24-.57-.4-.19-.8-.37-1.21-.55-.43-.19-.86-.39-1.3-.57-.42-.19-.85-.37-1.27-.55-.13-.06-.25-.12-.38-.17-.3-.12-.6-.25-.9-.37-1.71-.72-3.46-1.4-5.23-2.07-.89-.34-1.78-.67-2.69-.98-.56-.2-1.13-.4-1.7-.59-1.72-.59-3.46-1.16-5.25-1.7-.27-.09-.54-.17-.81-.26-.21-.06-.41-.12-.62-.18-.85-.26-1.71-.5-2.58-.75-.6-.16-1.2-.33-1.81-.49-.45-.13-.9-.25-1.36-.36-.59-.16-1.18-.31-1.77-.46-1.12-.28-2.26-.55-3.41-.82-1.96-.46-3.97-.9-6.03-1.32-.5-.1-.99-.2-1.5-.29-.55-.11-1.1-.22-1.66-.32-.09-.02-.19-.04-.28-.06-.18-.03-.36-.07-.54-.09-.28-.05-.56-.11-.85-.16-.44-.07-.89-.15-1.34-.23-1.25-.22-2.51-.43-3.8-.63-1.16-.18-2.34-.37-3.54-.53-1.19-.18-2.39-.34-3.62-.5-.35-.05-.69-.09-1.03-.14-.34-.05-.68-.09-1.03-.13-.69-.09-1.39-.17-2.09-.24-.49-.06-.98-.12-1.47-.18-1.55-.18-3.12-.34-4.72-.49-1.89-.19-3.81-.36-5.77-.52-.97-.08-1.96-.15-2.96-.22-.85-.07-1.71-.13-2.58-.19-1.4-.1-2.83-.19-4.27-.27-.72-.04-1.44-.07-2.16-.11-.79-.04-1.64-.08-2.53-.12-1.78-.07-3.73-.12-5.85-.15-2.74-.04-5.74-.06-8.96-.05-2.5,0-5.14.02-7.9.04-1.65.02-3.35.04-5.09.07-1.74.03-3.52.06-5.34.09-2.42.05-4.91.1-7.45.15-10.49.23-21.94.55-33.72.91-2.31.07-4.64.14-6.98.22-.99.03-1.99.06-2.99.09-2.84.09-5.7.18-8.56.27-12.38.39-24.78.79-36.51,1.13-1.72.05-3.42.1-5.11.14-3.63.1-7.19.2-10.65.28-.84.02-1.68.05-2.51.06-.83.02-1.66.04-2.48.06-2.83.06-5.58.12-8.24.17-3.1.06-6.09.1-8.93.13-.54.01-1.07.02-1.6.02-.94.01-1.88.02-2.79.03-5.08.03-9.61.01-13.46-.07-.5-.01-.99-.03-1.46-.04-1.09-.03-2.12-.06-3.08-.1-.05-.01-.1-.01-.14-.01h-.15c-1.04-.05-2-.1-2.89-.16-.57-.05-1.1-.09-1.6-.14-2.2-.2-3.69-.47-4.36-.82-.81-.42-1.49-1.95-2.04-4.09-.11-.41-.21-.84-.31-1.3-.08-.37-.16-.76-.23-1.15-.04-.18-.07-.38-.1-.57-.04-.2-.07-.39-.1-.59-.16-.98-.3-2.01-.43-3.06-.04-.36-.08-.71-.12-1.07v-.02c-.05-.5-.1-1-.15-1.51,0-.06,0-.13-.02-.2-.07-.87-.13-1.73-.19-2.59-.01-.08-.01-.16-.01-.23-.03-.49-.06-.98-.08-1.47-.01,0-.01-.01,0-.02-.1-2.23-.12-4.3-.06-5.97.03-.8.07-1.51.14-2.11.02-.16.04-.31.06-.45.04-.31.09-.57.15-.79.02-.07.04-.13.06-.18.03-.11.07-.21.11-.28.12-.21.24-.38.38-.52.06-.07.13-.13.21-.19.07-.05.14-.1.22-.14.23-.14.48-.21.75-.23.18-.03.36-.02.55,0h.01c.09.01.19.02.29.04.4.05.83.17,1.26.31.11.04.21.07.32.11.22.06.44.14.67.21.22.07.45.14.67.2.22.06.44.12.66.16.11.02.21.04.32.06.09.01.18.02.26.03.13.01.27.02.4.02.12,0,.24-.01.35-.02.08-.01.16-.02.24-.03.04,0,.07,0,.1-.02.11-.03.22-.06.33-.1s.22-.08.33-.14c.09-.05.19-.11.29-.18.02,0,.04-.03.06-.04.09-.07.17-.14.25-.22.09-.08.17-.17.25-.26.01-.01.03-.03.04-.05.09-.11.18-.23.27-.37.05-.07.1-.15.14-.24.05-.08.1-.17.14-.26.28-.56.52-1.26.72-2.13.07-.29.13-.6.18-.93.03-.17.05-.34.08-.52.11-.7.19-1.49.24-2.37.05-.66.08-1.37.09-2.14,14.21-5.53,28.37-13.42,43.13-17.69,54.82-15.87,151.46-21.77,226.47-10.3,26.63,4.08,50.54,10.36,68.88,19.15,5.59,2.67,19.21,9.83,23.23,13.26.57.49,1.13.99,1.68,1.49.63.57,1.24,1.16,1.82,1.75.44.43.86.86,1.28,1.3.05.06.11.12.16.18.35.38.7.76,1.03,1.14.2.21.39.43.57.65.35.4.68.8,1,1.2.08.09.15.17.22.26.38.47.75.94,1.11,1.42.98,1.29,1.91,2.62,2.77,3.98.33.51.65,1.03.96,1.55.37.61.72,1.22,1.07,1.85.69,1.24,1.34,2.5,1.95,3.79,1.83,3.86,3.3,7.91,4.47,12.1.19.7.38,1.4.55,2.1.18.71.35,1.42.51,2.13.16.72.32,1.43.46,2.15.87,4.32,1.46,8.76,1.82,13.28.06.75.11,1.51.16,2.26.23,3.76.31,7.57.26,11.4Z"/>
              <path class="cls-7" d="M1310.89,452.01c-.22.15-.44.31-.66.46.22-.16.44-.31.66-.46Z"/>
              <path class="cls-7" d="M1312.83,450.74c-.65.4-1.29.83-1.94,1.27.64-.44,1.28-.87,1.94-1.27Z"/>
              <path class="cls-7" d="M1309.78,452.79c.15-.11.3-.21.45-.32-.6.43-1.21.86-1.8,1.33.45-.35.9-.68,1.35-1.01Z"/>
              <path class="cls-1" d="M1462.34,460.83q-25.44,1.11-50.88,2.21c-.37-13.12-20.82-16.59-26.55-8.85-29.57-23.3-53.43-21.2-75.22-30.97,7.05-12.06,34.17,2.55,58.63,6.64,30.59,5.12,72.07,1.37,94.02,24.34-.28,1.38-.3,5.92,0,6.64Z"/>
              <path class="cls-6" d="M1351.72,476.32c.13-1.2.22-2.37.26-3.49.24,1.01.17,2.17-.26,3.49Z"/>
              <path class="cls-6" d="M1310.89,452.01c-.22.15-.44.31-.66.46.22-.16.44-.31.66-.46Z"/>
              <path class="cls-6" d="M1312.83,450.74c-.65.4-1.29.83-1.94,1.27.64-.44,1.28-.87,1.94-1.27Z"/>
              <path class="cls-6" d="M1309.78,452.79c.15-.11.3-.21.45-.32-.6.43-1.21.86-1.8,1.33.45-.35.9-.68,1.35-1.01Z"/>
              <path class="cls-19" d="M1581.8,460.83c-2.54,15.66-27.4,10.34-26.55-4.42.82-14.25,29.56-14.2,26.55,4.42Z"/>
              <path class="cls-19" d="M1486.67,458.62c-4.94,15.86-22.05,7.58-24.34,2.21-.3-.71-.28-5.26,0-6.64,2.88-14.22,29-10.54,24.34,4.42Z"/>
              <g>
                <path class="cls-18" d="M1670.29,465.26c-29.43-.27-59.12-2.52-88.49-4.42,3.02-18.63-25.72-18.68-26.55-4.42q-34.29,1.11-68.58,2.21c4.66-14.96-21.45-18.64-24.34-4.42-21.95-22.97-63.43-19.22-94.02-24.34-24.46-4.09-51.58-18.7-58.63-6.64-2.32-1.04-3.1.82-6.64-4.42,0-1.47,0-2.95,0-4.42.02-22.13.63-44.24,0-66.37.88-.37,8.28-8.26,15.49-11.06-.34,17.92-8.49,5.36-11.06,9.96-1.35,2.42-.24,25.82,3.32,27.65,8.94,4.62,161.78-4.29,201.32-2.21,93.36,4.9,110.83,34.38,180.3,87.39q-11.06,2.77-22.12,5.53Z"/>
                <path class="cls-23" d="M1537.55,426.54c6.4,19.71-22.95,24.41-26.55,8.85-4.34-18.8,22.83-20.28,26.55-8.85Z"/>
              </g>
              <path class="cls-7" d="M1696.84,465.26c-8.86,47.37-57.89,66.97-108.7,75.33-30.89,5.09-62.42,6.02-85.98,6.53-4.99.11-10.02.17-15.06.2-2.66.02-5.32.01-7.97,0-4.96-.01-9.91-.07-14.83-.16-.66,0-1.31-.03-1.96-.04h-.01c-1.64-.04-3.28-.08-4.92-.13-3.28-.1-6.57-.21-9.85-.34-2.1-.09-4.2-.18-6.3-.29-.74-.03-1.48-.07-2.22-.11-2.1-.11-4.19-.22-6.28-.35-2.13-.13-4.27-.27-6.4-.42-.66-.04-1.32-.09-1.98-.15-2.14-.14-4.27-.31-6.41-.48-1.64-.13-3.28-.27-4.92-.42-3.29-.29-6.57-.6-9.85-.95-1.62-.17-3.24-.34-4.86-.52-1.66-.18-3.31-.38-4.97-.58-1.64-.19-3.27-.4-4.91-.6-3.27-.41-6.54-.86-9.8-1.33-3.26-.47-6.52-.96-9.77-1.49-1.62-.27-3.25-.53-4.87-.81-1.62-.27-3.25-.56-4.87-.85-1.62-.29-3.23-.59-4.85-.89-3.24-.61-6.46-1.25-9.68-1.92-3.22-.66-6.44-1.36-9.64-2.09-3.21-.73-6.4-1.48-9.59-2.28-1.6-.4-3.19-.8-4.78-1.21-3.18-.82-6.35-1.67-9.51-2.56h-.01c-1.58-.44-3.15-.89-4.73-1.35-.33-.65-.58-1.17-.8-1.62-.13-.27-.25-.51-.36-.73-.07-.12-.12-.23-.17-.34-.11-.21-.2-.4-.3-.6-.06-.11-.12-.23-.18-.35-.05-.11-.11-.22-.16-.33-.06-.11-.11-.22-.17-.34-.07-.12-.13-.24-.19-.37-.03-.07-.07-.13-.1-.2-.12-.24-.25-.5-.39-.79-.07-.12-.13-.25-.2-.39-.1-.18-.19-.37-.3-.58h0c-.03-.73-.04-1.44-.05-2.16-.01-.76-.02-1.52-.02-2.28,0-1.13.01-2.27.03-3.41.03-1.39.06-2.79.09-4.19.03-1.42.06-2.84.08-4.26.03-2.68.01-5.36-.13-8.03h.01c.26.1.52.2.78.3,1.76.68,3.42,1.34,4.98,1.97-1.56-.64-3.22-1.31-4.98-1.98-.26-.1-.52-.2-.78-.3-.61-11.72.24-23.64,0-35.4h-.01c-.01-.74-.03-1.48-.03-2.22v-.07c-.02-1.49-.04-2.97-.06-4.46-.06-6.64-.01-13.28.03-19.93.03-4.39.05-8.77.06-13.15,0,0,0,.01.01.01.11.16.22.32.32.47.17.24.32.46.47.66.05.06.09.12.14.18.09.12.18.23.27.34.15.19.3.37.45.53h0c.59.67,1.08,1.08,1.52,1.33.18.1.35.18.51.24.22.08.43.14.63.17.1.02.2.03.29.05.06.01.12.01.18.02.11.02.22.03.34.04.11.01.23.03.35.05s.24.04.36.07c.13.03.26.06.39.11.13.04.27.09.42.16.68.31,1.37.6,2.05.88.6.25,1.21.49,1.81.72.65.26,1.29.5,1.94.72.25.09.5.18.76.28.05.01.1.03.15.05.38.14.76.27,1.15.39.09.03.19.06.29.09.39.14.79.26,1.18.39.79.25,1.58.5,2.37.73.69.21,1.37.41,2.06.6.78.22,1.56.44,2.34.65.07.02.14.04.21.06.88.23,1.76.47,2.65.7,1.45.38,2.91.75,4.39,1.13,2.83.72,5.71,1.45,8.64,2.26.18.05.35.1.53.15.72.2,1.44.41,2.17.62,1.16.34,2.33.69,3.51,1.06.78.24,1.57.5,2.37.77.79.26,1.59.54,2.39.83.8.28,1.61.58,2.42.89.4.15.8.31,1.21.47.4.16.79.31,1.18.47.83.33,1.67.69,2.52,1.06.37.16.75.33,1.13.5.46.2.91.41,1.37.62.84.39,1.67.79,2.52,1.21h.01c.84.42,1.7.86,2.55,1.31,1.71.91,3.44,1.88,5.19,2.94.44.26.88.53,1.33.81.44.27.88.55,1.32.84.44.28.89.57,1.33.87.89.59,1.79,1.2,2.69,1.83.45.32.9.64,1.36.97,1.37.97,2.74,2.01,4.13,3.1,0,0,0,.01-.01.01-.18.24-.35.48-.51.71-.33.47-.63.94-.91,1.4-.14.23-.28.45-.4.68-.01.01-.01.02-.02.03-.12.22-.23.43-.34.64-.12.22-.23.44-.33.66-.2.44-.39.87-.55,1.29-.08.21-.15.42-.22.63-.19.55-.33,1.09-.45,1.61-.05.27-.1.53-.14.78,0,.02,0,.03-.01.04-.03.25-.06.49-.08.73-.04.51-.05,1.02-.03,1.51.02.35.05.7.1,1.04.03.17.06.34.09.5h0c.03.17.07.34.11.5.03.13.07.26.11.39.01.02.01.04.02.06.01.02.02.05.03.08.04.14.09.28.14.41.06.16.12.31.18.46h0c.18.41.37.8.59,1.17.08.14.17.28.26.41.27.41.57.8.88,1.18h0c.29.34.59.65.91.96h.01c.32.3.66.59,1.02.87.23.18.47.35.71.51.14.09.28.19.42.27.19.13.39.24.59.35.2.12.41.23.62.33.2.11.41.21.63.31.18.09.35.16.54.24.25.11.52.22.79.31.2.08.4.15.6.21.24.08.48.16.73.23.24.07.48.13.73.2.47.12.95.22,1.44.31.02,0,.05,0,.07,0,.21.04.43.07.65.1.24.04.48.07.73.09.32.04.66.07.98.08.03.01.05.01.08.01h.05c.37.02.73.03,1.1.03.29,0,.57-.01.86-.02l.54-.03c.22-.01.44-.03.66-.06.18-.01.35-.03.53-.06.28-.03.57-.08.85-.13.22-.04.45-.08.67-.13.13-.03.26-.06.38-.09.21-.04.41-.1.6-.15.27-.08.54-.16.81-.25.26-.08.52-.18.78-.28,1.24-.49,2.4-1.13,3.42-1.92.17-.14.34-.27.5-.41.17-.15.33-.29.48-.44.12-.11.24-.23.35-.35.11-.12.22-.24.32-.36.22-.24.42-.5.62-.76h0c.25-.36.49-.73.71-1.12.12-.22.24-.45.35-.68.05-.11.1-.22.15-.34.05-.11.11-.23.15-.35.1-.25.19-.51.27-.77.08-.24.15-.49.22-.75,0-.02.01-.04.02-.06.06-.26.12-.52.16-.79.03-.13.05-.26.07-.4.03-.15.04-.3.06-.46.02-.13.03-.26.04-.39.02-.17.03-.34.04-.51.02-.3.03-.61.03-.93,0-.16-.01-.32-.01-.49h0c.6-.04,1.18-.06,1.75-.08.57-.03,1.12-.05,1.66-.07.36-.02.72-.03,1.07-.05.71-.03,1.39-.06,2.05-.09.33-.02.65-.03.97-.04.96-.05,1.88-.09,2.76-.12.29-.02.58-.03.86-.04.57-.03,1.13-.05,1.66-.07.54-.03,1.06-.05,1.57-.07.27-.01.53-.02.79-.03.24-.01.47-.02.7-.03.61-.03,1.21-.05,1.78-.08.79-.04,1.55-.07,2.29-.1.23-.01.46-.02.69-.03h.08c.28-.02.56-.03.84-.04.3-.01.6-.02.89-.04h.05c.39-.02.78-.04,1.17-.05,1.21-.05,2.4-.11,3.61-.16.4-.01.8-.03,1.21-.05h.01c.3-.01.6-.02.91-.04.31-.01.63-.02.94-.04.21-.01.43-.02.65-.03.75-.03,1.52-.06,2.32-.1.57-.02,1.16-.05,1.76-.08.24-.01.49-.02.74-.03s.5-.02.76-.03c.51-.02,1.03-.04,1.56-.07h0c.53-.02,1.08-.04,1.65-.07.29-.01.58-.02.87-.04.88-.03,1.79-.07,2.75-.12.32,0,.65-.02.98-.04.66-.03,1.34-.06,2.04-.09h.01c.35-.02.71-.03,1.07-.05.54-.02,1.1-.04,1.66-.07.57-.02,1.16-.04,1.75-.07.04.09.08.19.13.29.1.19.22.39.35.58.13.2.28.39.45.59.08.1.17.21.26.31.09.1.19.21.29.3.2.21.41.41.63.6.22.2.46.4.7.59h.01c.25.2.5.39.77.57h0c.27.19.55.37.84.54.29.18.59.35.9.52.16.08.31.17.48.24.31.16.64.32.97.45.12.06.24.11.37.16.28.11.56.22.85.32.01,0,.02,0,.03,0,.2.07.39.13.59.19.25.08.51.15.76.22.18.05.36.09.54.13.12.03.23.06.35.08.18.04.37.07.55.1.43.08.86.13,1.29.16.16.02.32.03.48.03.21.01.42.02.63.02.14,0,.28,0,.42-.01.15,0,.29,0,.43-.02.06,0,.12,0,.18-.01.16-.02.32-.03.47-.05.14-.02.27-.04.4-.06.2-.03.4-.06.59-.11.08-.01.15-.03.22-.05.06,0,.11-.02.16-.03.21-.06.42-.12.63-.18t.02-.01c.15-.04.29-.1.44-.15.15-.06.3-.13.46-.19.63-.26,1.23-.6,1.82-1.02.14-.1.29-.21.43-.32.14-.11.28-.23.42-.35.14-.12.27-.25.41-.38.19-.18.37-.37.54-.57.36-.4.7-.84,1.02-1.32.16-.24.32-.49.47-.75.05-.09.11-.19.17-.3.05-.1.1-.2.16-.3.11-.21.21-.42.31-.64,0-.01,0-.02.02-.03.1-.22.19-.44.29-.66.09-.23.18-.46.27-.7.12-.32.23-.66.34-1.01h.01q34.29-1.11,68.58-2.21c-.25,4.39,1.77,7.94,4.8,10.36.18.14.36.28.55.41.18.14.37.27.56.39.19.13.38.25.58.37.2.12.4.23.61.35.21.12.43.23.65.33.19.1.39.19.59.27.42.19.85.36,1.29.5.22.09.44.16.66.21.44.15.88.26,1.33.35.22.05.45.1.68.13.23.04.45.08.68.1.45.07.9.11,1.35.12h.08c.55.03,1.08.02,1.61-.02.17-.01.33-.02.5-.05.17-.01.33-.03.5-.06.16-.01.33-.04.49-.07.33-.06.65-.13.97-.21.16-.03.31-.08.47-.13.15-.04.3-.09.45-.14.16-.05.32-.11.47-.18.15-.05.3-.11.45-.18.44-.19.87-.41,1.29-.67.11-.06.21-.13.32-.2.57-.38,1.1-.81,1.59-1.3.14-.14.27-.28.4-.43.08-.09.16-.18.24-.28.44-.52.82-1.1,1.15-1.74.08-.14.16-.29.22-.44.32-.66.58-1.39.77-2.17.04-.14.08-.29.11-.44.04-.2.08-.41.11-.62.02-.04.02-.09.03-.13,2.12.13,4.23.28,6.34.41,7.5.5,15.03,1,22.55,1.48l.93.06c.31.02.62.04.93.06.3.02.6.03.9.05,1.97.12,3.94.24,5.91.36,2.98.17,5.97.34,8.95.51,3.6.2,7.2.39,10.8.56.13.01.25.01.38.02,1.72.07,3.43.14,5.14.22,2.11.08,4.21.17,6.3.23.66.03,1.32.05,1.98.08.66.02,1.33.03,2,.05.92.03,1.85.05,2.78.08.96.03,1.92.06,2.88.08,1.18.03,2.37.05,3.55.07,1.03.02,2.06.04,3.09.06,1.02.01,2.05.03,3.08.04h.01c8.85.08,17.69-.06,26.54,0Z"/>
            </g>
            <g>
              <path class="cls-5" d="M1303.05,414.37q-1.11-2.21-2.21-4.42c.08-10.97.85-22.32-1.11-33.18-1.29-1.04-23.86,9.44-27.65,11.06-27.21,11.64-52.32,28.42-80.75,37.61-50.57.42-100.96-2.43-151.54-2.21-.74,0-1.47,0-2.21,0l2.21-24.34c82.75-10.25,175.09,21.12,237.82-50.88,7.08-.91,22.34,1.29,25.44,0,.63,22.13.02,44.24,0,66.37Z"/>
              <path class="cls-8" d="M1303.05,418.8c-.01,13.26-.27,26.57,0,39.82.24,11.75-.61,23.67,0,35.4.42,8.07-.3,16.25,0,24.34-5.73,12.06-48.69-21.15-69.69-30.97-10-4.68-46.22-21.18-50.88-22.12-30.8-6.21-128.6,2.31-141.59-2.21-1.7-.59-1.12-2.89-1.11-4.42q0-17.7,0-35.4c50.59-.22,100.97,2.64,151.54,2.21,28.43-9.19,53.54-25.96,80.75-37.61,12.62,42.63,10.79,88.57,23.23,128.31,5.32.09,5.47-97.83,5.53-106.19q1.11,2.21,2.21,4.42c0,1.47,0,2.95,0,4.42Z"/>
              <path class="cls-13" d="M1300.84,409.95c-.06,8.36-.21,106.28-5.53,106.19-12.44-39.75-10.61-85.68-23.23-128.31,3.8-1.63,26.36-12.1,27.65-11.06,1.96,10.86,1.18,22.22,1.11,33.18Z"/>
            </g>
          </g>
        </g>
        <g>
          <g>
            <g>
              <path class="cls-3" d="M836.25,467.47c-1.86,1.44-1.82,1.81-2.21,2.21-21.1-9.41-138.19-87.17-139.38-101.77-.11-1.36-.27-3.2,0-4.42.17-.76,8.73-11.09,11.06-11.06,34,33.29,10.06,16.49,19.91,33.18,3.03,5.14,20.42,12.52,24.34,15.49,12.44,9.42,24.91,17.62,37.61,26.55,9.43,6.63,19.58,13.12,28.76,19.91,4.86,3.6,18.85,14.96,19.91,19.91Z"/>
              <path class="cls-7" d="M818.55,494.02q-78.54-46.46-157.07-92.92c10.18-11.9,21.18-23.11,33.18-33.18,1.19,14.6,118.27,92.35,139.38,101.77-5.54,5.66-11.77,17.21-15.49,24.34Z"/>
              <path class="cls-1" d="M818.55,494.02c-3.03,5.8-4.72,14.17-8.85,19.91-1.14-.69-3.39.51-24.34-11.06-16.09-8.89-32.12-17.93-45.35-30.97h-8.85c-48.04,26.47-101.92,46.11-153.76,61.95,15.19-4.8,27.5-17.97,40.93-24.34,2.36-1.12,4.2,2.32,4.42,2.21,23.99-11.22,49.02-20.07,73.01-30.97,10.89-4.95,18.28-12.36,30.97-13.27,8.9-6.71-13.99-13.91-18.8-17.7-.12-.1-.11-.63-2.21-2.21-.3-.22,1.34-3.29-3.32-6.64-5.85-4.2-51.69-26.88-51.99-29.87,2.57-4.07,8.15-6.56,11.06-9.96q78.54,46.46,157.07,92.92Z"/>
            </g>
            <g>
              <path class="cls-26" d="M694.66,363.49c-28.59-24.14-63.85-43.45-88.49-70.79,4.56-5.02,9.41-5.75,11.06-13.27,29.99,19.2,61.67,46.74,88.49,73.01-2.33-.02-10.89,10.3-11.06,11.06Z"/>
              <path class="cls-18" d="M705.72,447.56c-18.54,2.61-37.48,7.74-55.31,13.27,0-1.86-6.18-6.53-6.64-6.64,7.97.88,2.31-18.68,2.21-24.34-.01-.9,3.56-4.49,2.21-13.27,3.17-11.86-25.52-26.97-39.82-39.82-12.9-11.6-39-36.75-48.67-44.25,14.67-13.18,33.27-25.28,46.46-39.82,24.65,27.34,59.9,46.65,88.49,70.79-.27,1.22-.11,3.06,0,4.42-12.01,10.07-23,21.29-33.18,33.18-2.91,3.4-8.49,5.89-11.06,9.96.3,2.98,46.14,25.66,51.99,29.87,4.66,3.35,3.02,6.41,3.32,6.64Z"/>
            </g>
          </g>
          <g>
            <path class="cls-8" d="M834.04,478.53c14.28,7.82,28.97,16.93,42.03,26.55,43.13,31.76,66.74,59.18,92.92,81.86,2.89,33.44-2.61,68.4-7.74,101.77,4.72-77.07-85.2-137.4-144.91-175.88-.8-2.08,15.3-29.2,17.7-34.29Z"/>
            <path class="cls-5" d="M968.99,586.93c-26.18-22.67-49.79-50.1-92.92-81.86q4.42-6.64,8.85-13.27c3.41,2.71,4.18,4.23,4.42,4.42,14.4,11.18,27.36,23.58,43.14,33.18,76.47,46.51,89.05,33.83,140.48,37.61-23.93,14.69-56.66,21.28-82.96,35.4-5.15,1.12-11.61-7.33-21.02-15.49Z"/>
            <path class="cls-5" d="M876.07,505.08c-13.06-9.62-27.76-18.73-42.03-26.55.25-.54.75-5.55,4.42-11.06,5.02-6.62,7.69-2.03,8.85-2.21v2.21q13.27,8.85,26.55,17.7c.51.4,1.62-.88,11.06,6.64q-4.42,6.64-8.85,13.27Z"/>
            <g>
              <path class="cls-4" d="M1300.83,645.56c-27.6-36.15-70.95-51.76-112.82-63.05-58.95-15.89-70.46-12.21-115.05-15.48-.75.45-1.5.9-2.26,1.34-.59.35-1.19.69-1.8,1.02-.73.41-1.47.82-2.22,1.21-1.03.55-2.08,1.08-3.13,1.61-1.6.8-3.22,1.57-4.87,2.33-.9.41-1.81.82-2.73,1.22-.63.27-1.25.55-1.89.82-2.06.88-4.15,1.73-6.27,2.57-.07.03-.13.05-.2.08-.4.16-.82.32-1.23.48-.41.16-.82.32-1.23.48-.91.35-1.81.7-2.72,1.05-.76.28-1.52.57-2.28.85-1.68.63-3.36,1.24-5.05,1.86-.9.33-1.81.66-2.71.99-2.71.99-5.44,1.97-8.15,2.96-1.82.66-3.63,1.33-5.44,2-.13.05-.25.09-.38.14-.77.29-1.55.59-2.32.88-.9.34-1.8.68-2.7,1.03-.9.35-1.79.7-2.69,1.06-.73.29-1.47.58-2.2.88-1.93.78-3.85,1.59-5.75,2.41-1.74.76-3.48,1.54-5.19,2.34-.64.3-1.28.61-1.91.92-.64.31-1.27.62-1.9.93-.63.32-1.25.64-1.88.96-.62.32-1.24.65-1.86.98-.46.1-.93.12-1.42.07-.13-.01-.27-.03-.4-.06-.16-.02-.31-.05-.47-.1-.08-.02-.17-.04-.25-.07-.11-.03-.23-.07-.34-.11-.84-.28-1.7-.74-2.61-1.34-.36-.23-.72-.49-1.09-.77-.25-.18-.5-.38-.75-.58-.5-.4-1.02-.83-1.55-1.29-2.12-1.84-4.44-4.13-7.01-6.56-.32-.31-.64-.61-.97-.92-.39-.37-.79-.74-1.19-1.11-.44-.4-.88-.81-1.33-1.21-.53-.48-1.08-.96-1.63-1.44.7,8.09.91,16.27.75,24.49-.03,1.61-.08,3.22-.14,4.83,0,.11,0,.22-.01.33-.06,1.56-.13,3.12-.21,4.68-.04.83-.09,1.67-.14,2.51-.05.83-.1,1.67-.16,2.5-.05.84-.11,1.67-.18,2.51-.24,3.35-.54,6.69-.87,10.04-.17,1.67-.34,3.35-.53,5.02-.18,1.68-.37,3.36-.57,5.03s-.41,3.33-.62,4.99c-.32,2.51-.65,5.01-1,7.51-.2,1.45-.4,2.9-.61,4.34-.05.37-.11.74-.16,1.1-.19,1.35-.39,2.69-.59,4.04-.5,3.42-1.02,6.82-1.54,10.22-.13.85-.26,1.7-.39,2.55-.13.85-.26,1.69-.39,2.54-.13.82-.26,1.63-.39,2.45.12-1.93.18-3.85.18-5.76,0-.87-.01-1.73-.04-2.6-.01-.43-.02-.86-.04-1.29-.01-.44-.03-.87-.06-1.3h0c-.05-.87-.11-1.72-.18-2.58-.07-.85-.15-1.71-.24-2.56h0c-.09-.77-.18-1.53-.28-2.28-.02-.18-.04-.35-.07-.52-.1-.77-.22-1.53-.34-2.29-.15-.94-.32-1.87-.49-2.8-.02-.08-.03-.15-.05-.23-.13-.67-.27-1.34-.41-2.01-.18-.83-.37-1.67-.57-2.5-.4-1.66-.84-3.31-1.32-4.95-.24-.82-.49-1.64-.74-2.46-.28-.87-.57-1.74-.87-2.6-.26-.76-.53-1.52-.81-2.27-.59-1.62-1.22-3.22-1.89-4.82-.45-1.06-.91-2.12-1.39-3.17-1.02-2.26-2.1-4.49-3.25-6.7h-.01c-.38-.73-.76-1.44-1.15-2.16-.29-.55-.6-1.09-.91-1.64-.37-.66-.74-1.32-1.12-1.98-.46-.79-.93-1.57-1.4-2.36-.08-.13-.16-.27-.24-.4-.37-.6-.75-1.21-1.12-1.81-.96-1.51-1.94-3.02-2.94-4.51-.34-.5-.68-1-1.02-1.5-.34-.5-.69-.99-1.04-1.48-.34-.5-.69-.99-1.05-1.48-.7-.99-1.43-1.97-2.16-2.94-.73-.98-1.48-1.95-2.23-2.91h0c-.76-.98-1.52-1.94-2.29-2.89-.39-.48-.78-.96-1.17-1.44-.59-.72-1.18-1.43-1.78-2.14-.6-.71-1.21-1.42-1.82-2.12-.41-.47-.82-.94-1.23-1.41-.83-.93-1.66-1.87-2.5-2.79-.43-.47-.85-.93-1.27-1.39-.86-.92-1.72-1.84-2.58-2.76-1.31-1.37-2.63-2.73-3.96-4.08-.45-.45-.9-.9-1.35-1.35-.88-.88-1.77-1.75-2.66-2.62-.06-.06-.13-.12-.19-.18-.92-.89-1.84-1.77-2.76-2.65-.93-.88-1.86-1.75-2.8-2.62-.95-.88-1.91-1.76-2.88-2.63-.97-.87-1.94-1.74-2.91-2.6-.98-.87-1.96-1.73-2.95-2.58-.99-.86-1.98-1.7-2.98-2.55-.99-.84-1.99-1.68-3-2.52-1-.84-2.01-1.67-3.02-2.49-1.01-.83-2.03-1.65-3.04-2.46-1.02-.82-2.04-1.63-3.07-2.44-.51-.4-1.02-.8-1.53-1.2-.51-.4-1.02-.8-1.54-1.2-1.03-.8-2.06-1.59-3.09-2.38-1.03-.79-2.06-1.57-3.1-2.35-1.95-1.47-3.91-2.91-5.86-4.34-.98-.72-1.96-1.43-2.94-2.14-.97-.71-1.95-1.41-2.93-2.11-1.27-.9-2.53-1.8-3.8-2.69-1.03-.73-2.06-1.45-3.09-2.17-1.03-.72-2.06-1.43-3.09-2.14-.94-.65-1.87-1.29-2.81-1.93-1.45-.99-2.89-1.97-4.33-2.95-.8-.54-1.6-1.07-2.39-1.6-3.91-2.63-7.77-5.17-11.55-7.64-.97-.64-1.94-1.27-2.9-1.89-1.44-.94-2.88-1.87-4.29-2.78-.71-.46-1.41-.92-2.11-1.37s-1.4-.9-2.09-1.35c-.09-.24.04-.82.35-1.66.12-.33.27-.7.45-1.1.12-.27.25-.56.39-.87.2-.45.43-.94.69-1.46.17-.35.34-.71.53-1.08.37-.74.77-1.52,1.2-2.34.1-.21.21-.42.33-.63.21-.42.44-.84.67-1.27.12-.22.23-.44.35-.66.23-.44.47-.89.72-1.34.12-.23.24-.46.37-.69.25-.45.5-.91.75-1.37h0c.26-.47.51-.94.77-1.4.26-.47.52-.94.78-1.41.25-.47.51-.93.78-1.4h0c.13-.24.25-.47.39-.7.25-.47.51-.94.77-1.4.38-.69.77-1.38,1.15-2.06.25-.45.5-.9.75-1.33.12-.22.24-.44.36-.65.24-.44.48-.86.71-1.27.23-.42.45-.82.68-1.22.1-.2.22-.4.33-.59.32-.58.63-1.14.92-1.67.1-.18.19-.35.29-.52.13-.23.25-.46.37-.68.06-.1.11-.2.17-.3.08-.16.16-.31.25-.46.07-.15.15-.29.23-.43.07-.14.15-.28.22-.42.03-.07.06-.13.1-.19.37-.71.67-1.3.87-1.72.02-.03.04-.08.06-.15.04-.13.08-.34.14-.6.03-.13.06-.27.09-.43.09-.4.2-.88.35-1.43.05-.22.12-.45.19-.69.1-.36.22-.75.36-1.15.18-.54.39-1.11.64-1.71h0c.24-.61.52-1.24.85-1.88.16-.32.33-.65.52-.98.08-.16.18-.33.28-.5.09-.17.2-.34.3-.51.2-.34.42-.68.65-1.03-.57.32-1.76-.35-2.21,0-.34.26-.62.5-.86.7-.08.07-.15.14-.21.2-.03.02-.06.05-.09.09-.05.04-.09.08-.13.12-.05.04-.08.08-.12.12l-.14.14c-.12.14-.21.25-.28.35-.1.13-.17.24-.25.34-.04.05-.08.1-.13.15h-.01c-.34.36-.69.73-1.04,1.13-.17.2-.35.4-.52.61-.18.21-.36.42-.53.64-.18.22-.35.44-.53.66-.2.25-.39.51-.59.77-.16.21-.32.42-.48.64-.24.33-.48.66-.72,1-.22.3-.43.61-.65.93-.27.4-.55.82-.83,1.24-.02.03-.04.06-.06.09-.13.2-.26.4-.39.6-.13.19-.26.39-.38.59-.17.25-.34.51-.5.78-.17.26-.33.53-.49.79-.24.38-.48.76-.71,1.15-.42.7-.84,1.4-1.25,2.11-.99,1.69-1.94,3.39-2.82,5.01-.22.4-.44.8-.65,1.19-.43.8-.84,1.57-1.23,2.31-.26.49-.51.96-.75,1.42-.12.23-.24.46-.36.68h0c-.06.13-.13.26-.18.38-.16.31-.32.62-.46.94-.16.31-.3.64-.44.97-.13.29-.25.58-.37.88-.14.34-.28.68-.41,1.02-.14.34-.27.69-.4,1.04-.26.69-.52,1.39-.78,2.1-.32.88-.64,1.76-.97,2.65-.23.62-.47,1.24-.71,1.85-.16.4-.32.79-.48,1.19-.03.07-.05.13-.08.2-.18.43-.37.85-.55,1.26-.15.33-.3.66-.45.98-.03.05-.05.1-.07.15-.05.1-.1.2-.15.29-.11.23-.22.46-.34.68-.18.36-.37.71-.57,1.06-.45.79-.93,1.55-1.45,2.27h0c37.64,22.66,106.63,71.11,130.47,112.69,1.75,3.04,3.25,6.04,4.48,8.99,22.71,54.46-11.47,143.09,57.52,222.34,1.19,1.36,2.41,2.71,3.66,4.05.41.45.83.91,1.27,1.36,2.63,2.78,5.37,5.48,8.22,8.12.95.88,1.92,1.76,2.9,2.64,1.24,1.11,2.5,2.2,3.78,3.28.55.49,1.12.96,1.7,1.43,1.29,1.07,2.59,2.12,3.91,3.18,2.57,2.02,5.2,4.02,7.9,5.96,1.13.82,2.27,1.63,3.42,2.42,1.58,1.11,3.19,2.2,4.82,3.27.93.62,1.88,1.23,2.82,1.83.78.5,1.54.99,2.33,1.47.75.48,1.5.95,2.26,1.39.75.47,1.5.93,2.25,1.37.98.6,1.98,1.19,2.97,1.76,2.34,1.36,4.71,2.68,7.1,3.97.47.25.94.52,1.43.77,1.77.95,3.56,1.87,5.37,2.78,1.21.62,2.45,1.22,3.68,1.82.45.24.91.46,1.36.66.46.22.91.44,1.37.66,2.29,1.09,4.59,2.15,6.92,3.17,2.32,1.03,4.65,2.03,7,3,.94.39,1.88.77,2.82,1.14.73.29,1.45.59,2.18.87,1.09.42,2.16.83,3.25,1.24.92.35,1.83.69,2.74,1.03,2.04.75,4.09,1.48,6.15,2.17.96.34,1.93.66,2.89.98.96.33,1.93.63,2.9.94,1.22.4,2.44.78,3.65,1.15.55.17,1.09.33,1.63.5.94.27,1.88.55,2.8.82,2.19.64,4.39,1.24,6.58,1.82.48.13.97.26,1.45.38,3.18.83,6.37,1.6,9.55,2.3.95.22,1.91.43,2.86.63,4.18.9,8.38,1.7,12.56,2.38.97.16,1.95.32,2.93.47.91.15,1.82.28,2.73.41,2.98.44,5.94.82,8.91,1.14h.04c.96.11,1.92.21,2.88.3,1.11.1,2.21.2,3.3.3.1,0,.2.02.31.03.99.08,1.99.15,2.99.22,1.08.08,2.17.15,3.24.21.68.04,1.34.09,2.01.1.49.03.98.06,1.47.08,1.23.05,2.48.1,3.71.13h.09c1.69.04,3.36.07,5.03.07h1.54c.77,0,1.54-.01,2.3-.03.23,0,.47,0,.7-.01.76-.01,1.52-.02,2.28-.05,1.72-.06,3.42-.13,5.12-.22.68-.03,1.35-.07,2.01-.11.91-.06,1.82-.12,2.72-.19,2.71-.21,5.4-.49,8.05-.81.04,0,.07-.02.12-.02,6.35-.8,7.25-1.87,8.73-2.2,92.82-20.29,143.58-198.49,73-290.92ZM1249.95,731.84c5.27,21.72-30.68,42.73-37.61,22.13-9.1-27.09,32.61-42.77,37.61-22.13ZM1236.68,671c-.36.52-8.28,8.6-8.85,8.85-1.29-.12-2.75-.15-4.25-.13-.26,0-.53,0-.79.01-.26,0-.53.01-.79.02-.26.01-.53.02-.79.03-.35.01-.69.02-1.03.04-.45.02-.9.04-1.34.06-.01.01-.03.01-.04,0-.65.04-1.28.07-1.89.11-.7.03-1.37.07-2,.09-.31.02-.61.03-.9.03-.16,0-.31.01-.46.01-.47.01-.91.02-1.31.01-.28,0-.55-.01-.79-.03-.24,0-.45-.03-.64-.07-.12,0-.23-.03-.32-.06-.01,0-.02,0-.04,0-.13-.03-.23-.07-.32-.11-28.29-14.04,28.48-62.04,26.55-8.85ZM1207.92,802.64c.72,5.21-17.05,40.35-29.87,38.71-33.31-4.26,24.65-76.3,29.87-38.71ZM1173.63,697.55c23.65,5.81,3.84,51.89-23.23,37.61-9.36-4.93-7.43-10.97-4.43-19.91,3.77-11.22,16.34-20.48,27.66-17.7ZM1139.34,648.88c-7.87,2.93-14.08,2.44-22.13,0-21.62-42.36,54.62-43.91,22.13,0ZM1145.97,773.88c3.17,8.86-14.34,47.42-32.08,40.92-22.35-8.17,22-69.15,32.08-40.92ZM1079.6,679.85c18.25-8.18,35.21,2.76,28.76,22.13-12.88,38.72-65.36-5.7-28.76-22.13ZM1028.72,747.33c8.01-17.67,43.71-10.21,46.46,4.42,6.42,34.25-61.51,28.78-46.46-4.42Z"/>
              <g>
                <path class="cls-8" d="M1139.34,648.88c32.5-43.91-43.74-42.36-22.12,0-8.04-2.44-10.15-11.55-18.8-13.27-6.81-9.91,9.38-39.48,30.97-37.61,1.58.14,24.81,17.36,25.44,18.8.77,1.74,1.06,25.92-15.49,32.08Z"/>
                <path class="cls-8" d="M1236.68,671c1.94-53.2-54.84-5.2-26.55,8.85-2.16-.71-21.07-13.01-28.76-16.59,9.66-37.19,82.98-32.38,55.31,7.74Z"/>
                <path class="cls-8" d="M1210.13,679.85c1.76.87,11.59-.58,17.7,0-8.03,3.63-9.84,2.58-17.7,0Z"/>
              </g>
            </g>
            <path class="cls-16" d="M847.31,467.47c11.1,2.73,18.15,11.14,26.55,17.7q-13.27-8.85-26.55-17.7Z"/>
          </g>
        </g>
      </g>
      <path class="cls-19" d="M1450.65,557.7l2.06-.05s-.04.03-.06.05l-2.06.05s.04-.03.06-.05Z"/>
      <path class="cls-7" d="M1701.11,440.6c-.02.11-.03.21-.05.32-1.27,8.48-2.79,16.69-4.22,24.34-8.86,47.37-57.89,66.97-108.7,75.33-30.89,5.09-62.42,6.02-85.98,6.53-4.99.11-10.02.17-15.06.2-2.66.02-5.32.01-7.97,0-4.95-.03-9.88-.09-14.79-.2h-.01s-.02.03-.03.04c-.66,0-1.31-.03-1.96-.04h-.01c-1.64-.04-3.28-.08-4.92-.13-3.28-.1-6.57-.21-9.85-.34-2.1-.09-4.2-.18-6.3-.29-.74-.03-1.48-.07-2.22-.11-2.1-.11-4.19-.22-6.28-.35-2.13-.13-4.27-.27-6.4-.42-.66-.04-1.32-.09-1.98-.15-2.14-.14-4.27-.31-6.41-.48-1.64-.13-3.28-.27-4.92-.42-3.29-.29-6.57-.6-9.85-.95-1.62-.17-3.24-.34-4.86-.52-1.66-.18-3.31-.38-4.97-.58-1.64-.19-3.27-.4-4.91-.6-3.27-.41-6.54-.86-9.8-1.33-3.26-.47-6.52-.96-9.77-1.49-1.62-.27-3.25-.53-4.87-.81-1.62-.27-3.25-.56-4.87-.85-1.62-.29-3.23-.59-4.85-.89-3.24-.61-6.46-1.25-9.68-1.92-3.22-.66-6.44-1.36-9.64-2.09-3.21-.73-6.4-1.48-9.59-2.28-1.6-.4-3.19-.8-4.78-1.21-3.18-.82-6.35-1.67-9.51-2.56h-.01c-1.58-.44-3.15-.89-4.73-1.35-.33-.65-.58-1.17-.8-1.62-.13-.27-.25-.51-.36-.73-.07-.12-.12-.23-.17-.34-.11-.21-.2-.4-.3-.6-.06-.11-.12-.23-.18-.35-.05-.11-.11-.22-.16-.33-.06-.11-.11-.22-.17-.34-.07-.12-.13-.24-.19-.37-.03-.07-.07-.13-.1-.2-.12-.24-.25-.5-.39-.79l.29-25h0s.87-73.34.87-73.34l-1.37,1.21-.29-4.56v-3.27s.28-48.4.28-48.4l2,1.39,3.11,1.79,2.31,1.33h.01l8.83,5.07.2.11h0s10.82,6.22,10.82,6.22c20.89,12,43.7,19.42,67.17,21.83l43.2,4.45c7.63.78,15.29,1.17,22.95,1.17h36.56c13.86,0,27.7,1.29,41.36,3.85l59.91,11.21,58.02,9.46h.01l2.5.41h.01l38.81,6.33Z"/>
    </g>
  </g>
</svg>